<svg width="408" height="34" viewBox="0 0 408 34" fill="none" xmlns="http://www.w3.org/2000/svg">
<path d="M4.88664 10H3.86464V5.898L0.210641 -0.0100005H1.31664L4.36864 5.1H4.39664L7.46264 -0.0100005H8.55464L4.88664 5.898V10ZM11.0987 10.196C8.9567 10.196 7.6687 8.656 7.6687 6.444C7.6687 4.218 8.9567 2.678 11.0987 2.678C13.2407 2.678 14.5287 4.218 14.5287 6.444C14.5287 8.656 13.2407 10.196 11.0987 10.196ZM11.0987 9.398C12.7647 9.398 13.5767 8.082 13.5767 6.444C13.5767 4.792 12.7647 3.476 11.0987 3.476C9.4327 3.476 8.6207 4.792 8.6207 6.444C8.6207 8.082 9.4327 9.398 11.0987 9.398ZM20.5727 7.368V2.86H21.4827V10H20.5727V8.992H20.5447C20.1387 9.58 19.3687 10.168 18.0947 10.168C16.8207 10.168 15.7567 9.454 15.7567 7.872V2.86H16.6667V7.676C16.6667 8.586 17.0867 9.37 18.3187 9.37C19.6767 9.37 20.5727 8.418 20.5727 7.368ZM26.1361 2.692C26.3881 2.692 26.5841 2.706 26.7521 2.734V3.63C26.6121 3.602 26.4581 3.588 26.3181 3.588C25.0301 3.588 24.0781 4.624 24.0781 6.01V10H23.1681V2.86H24.0781V4.316H24.1061C24.4701 3.378 25.1281 2.692 26.1361 2.692ZM32.4152 10.182C30.9872 10.182 30.0772 9.384 30.0772 8.194C30.0772 6.654 31.1692 6.164 33.0172 5.842C34.1932 5.632 34.9492 5.548 34.9492 4.694C34.9492 3.966 34.4732 3.476 33.3252 3.476C31.9392 3.476 31.4492 3.966 31.3792 5.016H30.4132C30.4832 3.756 31.2812 2.678 33.3532 2.678C34.6692 2.678 35.8312 3.238 35.8312 4.946V8.516C35.8312 9.09 35.9152 9.356 36.2372 9.356C36.2932 9.356 36.3492 9.356 36.4332 9.342V10C36.2792 10.028 36.1252 10.056 35.9572 10.056C35.3552 10.056 35.0052 9.818 34.9492 8.922H34.9212C34.4312 9.734 33.5772 10.182 32.4152 10.182ZM32.5272 9.384C33.9832 9.384 34.9492 8.614 34.9492 7.326V5.996C34.7392 6.29 33.9832 6.458 33.1292 6.598C31.7432 6.85 31.0292 7.2 31.0292 8.11C31.0292 8.936 31.4912 9.384 32.5272 9.384ZM40.9926 2.678C42.7426 2.678 44.1426 4.078 44.1426 6.43C44.1426 8.768 42.7426 10.168 40.9926 10.168C39.7466 10.168 39.0046 9.552 38.5846 8.796H38.5566V12.478H37.6466V2.86H38.5566V4.008H38.5846C39.0046 3.322 39.7466 2.678 40.9926 2.678ZM40.8946 9.37C42.3786 9.37 43.1906 8.026 43.1906 6.43C43.1906 4.82 42.3786 3.476 40.8946 3.476C39.5226 3.476 38.5566 4.624 38.5566 6.43C38.5566 8.222 39.5226 9.37 40.8946 9.37ZM48.7856 2.678C50.5356 2.678 51.9356 4.078 51.9356 6.43C51.9356 8.768 50.5356 10.168 48.7856 10.168C47.5396 10.168 46.7976 9.552 46.3776 8.796H46.3496V12.478H45.4396V2.86H46.3496V4.008H46.3776C46.7976 3.322 47.5396 2.678 48.7856 2.678ZM48.6876 9.37C50.1716 9.37 50.9836 8.026 50.9836 6.43C50.9836 4.82 50.1716 3.476 48.6876 3.476C47.3156 3.476 46.3496 4.624 46.3496 6.43C46.3496 8.222 47.3156 9.37 48.6876 9.37ZM54.1426 10H53.2326V-0.0100005H54.1426V10ZM56.8526 1.432H55.6766V0.255999H56.8526V1.432ZM56.7266 10H55.8166V2.86H56.7266V10ZM61.4245 10.182C59.3805 10.182 58.0085 8.67 58.0085 6.43C58.0085 4.204 59.3805 2.692 61.4245 2.692C63.1605 2.692 64.3365 3.854 64.4905 5.366H63.5385C63.4825 4.568 62.9085 3.49 61.4245 3.49C59.6745 3.49 58.9605 4.974 58.9605 6.43C58.9605 7.9 59.6745 9.398 61.4245 9.398C62.9225 9.398 63.4825 8.32 63.5385 7.452H64.4905C64.3925 8.992 63.1605 10.182 61.4245 10.182ZM67.675 10.182C66.247 10.182 65.337 9.384 65.337 8.194C65.337 6.654 66.429 6.164 68.277 5.842C69.453 5.632 70.209 5.548 70.209 4.694C70.209 3.966 69.733 3.476 68.585 3.476C67.199 3.476 66.709 3.966 66.639 5.016H65.673C65.743 3.756 66.541 2.678 68.613 2.678C69.929 2.678 71.091 3.238 71.091 4.946V8.516C71.091 9.09 71.175 9.356 71.497 9.356C71.553 9.356 71.609 9.356 71.693 9.342V10C71.539 10.028 71.385 10.056 71.217 10.056C70.615 10.056 70.265 9.818 70.209 8.922H70.181C69.691 9.734 68.837 10.182 67.675 10.182ZM67.787 9.384C69.243 9.384 70.209 8.614 70.209 7.326V5.996C69.999 6.29 69.243 6.458 68.389 6.598C67.003 6.85 66.289 7.2 66.289 8.11C66.289 8.936 66.751 9.384 67.787 9.384ZM75.5274 2.86V3.658H74.0854V8.166C74.0854 9.048 74.2814 9.258 74.9814 9.258C75.2054 9.258 75.3174 9.244 75.5274 9.23V10C75.2474 10.042 75.0794 10.056 74.8554 10.056C73.8194 10.056 73.1754 9.706 73.1754 8.152V3.658H72.1254V2.86H73.1754V0.48H74.0854V2.86H75.5274ZM77.7432 1.432H76.5672V0.255999H77.7432V1.432ZM77.6172 10H76.7072V2.86H77.6172V10ZM82.3292 10.196C80.1872 10.196 78.8992 8.656 78.8992 6.444C78.8992 4.218 80.1872 2.678 82.3292 2.678C84.4712 2.678 85.7592 4.218 85.7592 6.444C85.7592 8.656 84.4712 10.196 82.3292 10.196ZM82.3292 9.398C83.9952 9.398 84.8072 8.082 84.8072 6.444C84.8072 4.792 83.9952 3.476 82.3292 3.476C80.6632 3.476 79.8512 4.792 79.8512 6.444C79.8512 8.082 80.6632 9.398 82.3292 9.398ZM90.4311 2.692C91.7051 2.692 92.7691 3.406 92.7691 4.988V10H91.8591V5.184C91.8591 4.274 91.4391 3.49 90.2071 3.49C88.8491 3.49 87.9531 4.442 87.9531 5.492V10H87.0431V2.86H87.9531V3.882H87.9811C88.3871 3.294 89.1571 2.692 90.4311 2.692ZM100.849 2.692C102.123 2.692 103.187 3.406 103.187 4.988V10H102.277V5.184C102.277 4.274 101.857 3.49 100.625 3.49C99.2671 3.49 98.3711 4.442 98.3711 5.492V10H97.4611V-0.0100005H98.3711V3.882H98.3991C98.8051 3.294 99.5751 2.692 100.849 2.692ZM106.777 10.182C105.349 10.182 104.439 9.384 104.439 8.194C104.439 6.654 105.531 6.164 107.379 5.842C108.555 5.632 109.311 5.548 109.311 4.694C109.311 3.966 108.835 3.476 107.687 3.476C106.301 3.476 105.811 3.966 105.741 5.016H104.775C104.845 3.756 105.643 2.678 107.715 2.678C109.031 2.678 110.193 3.238 110.193 4.946V8.516C110.193 9.09 110.277 9.356 110.599 9.356C110.655 9.356 110.711 9.356 110.795 9.342V10C110.641 10.028 110.487 10.056 110.319 10.056C109.717 10.056 109.367 9.818 109.311 8.922H109.283C108.793 9.734 107.939 10.182 106.777 10.182ZM106.889 9.384C108.345 9.384 109.311 8.614 109.311 7.326V5.996C109.101 6.29 108.345 6.458 107.491 6.598C106.105 6.85 105.391 7.2 105.391 8.11C105.391 8.936 105.853 9.384 106.889 9.384ZM114.626 10.182C112.624 10.182 111.532 9.09 111.49 7.662H112.442C112.498 8.642 113.142 9.384 114.64 9.384C115.998 9.384 116.46 8.754 116.46 8.054C116.46 7.004 115.396 6.892 114.402 6.654C113.086 6.318 111.756 5.996 111.756 4.61C111.756 3.448 112.68 2.692 114.29 2.692C116.152 2.692 117.02 3.686 117.146 4.862H116.194C116.068 4.232 115.69 3.49 114.304 3.49C113.282 3.49 112.708 3.882 112.708 4.554C112.708 5.45 113.674 5.576 114.752 5.842C116.096 6.164 117.426 6.542 117.426 8.026C117.426 9.328 116.39 10.182 114.626 10.182ZM125.006 2.678C126.756 2.678 128.156 4.078 128.156 6.43C128.156 8.768 126.756 10.168 125.006 10.168C123.76 10.168 123.018 9.552 122.598 8.782H122.57V10H121.66V-0.0100005H122.57V4.008H122.598C123.018 3.322 123.76 2.678 125.006 2.678ZM124.908 9.37C126.392 9.37 127.204 8.026 127.204 6.43C127.204 4.82 126.392 3.462 124.908 3.462C123.536 3.462 122.57 4.624 122.57 6.43C122.57 8.222 123.536 9.37 124.908 9.37ZM135.697 6.108C135.697 6.304 135.697 6.5 135.683 6.612H130.027C130.041 8.054 130.811 9.412 132.491 9.412C133.961 9.412 134.535 8.404 134.675 7.816H135.599C135.249 9.118 134.269 10.196 132.477 10.196C130.293 10.196 129.075 8.6 129.075 6.43C129.075 4.148 130.419 2.678 132.477 2.678C134.535 2.678 135.697 4.12 135.697 6.108ZM130.027 5.814H134.731C134.731 4.54 133.905 3.462 132.435 3.462C131.049 3.462 130.097 4.484 130.027 5.814ZM143.217 6.108C143.217 6.304 143.217 6.5 143.203 6.612H137.547C137.561 8.054 138.331 9.412 140.011 9.412C141.481 9.412 142.055 8.404 142.195 7.816H143.119C142.769 9.118 141.789 10.196 139.997 10.196C137.813 10.196 136.595 8.6 136.595 6.43C136.595 4.148 137.939 2.678 139.997 2.678C142.055 2.678 143.217 4.12 143.217 6.108ZM137.547 5.814H142.251C142.251 4.54 141.425 3.462 139.955 3.462C138.569 3.462 137.617 4.484 137.547 5.814ZM147.88 2.692C149.154 2.692 150.218 3.406 150.218 4.988V10H149.308V5.184C149.308 4.274 148.888 3.49 147.656 3.49C146.298 3.49 145.402 4.442 145.402 5.492V10H144.492V2.86H145.402V3.882H145.43C145.836 3.294 146.606 2.692 147.88 2.692ZM156.87 10.182C155.442 10.182 154.532 9.384 154.532 8.194C154.532 6.654 155.624 6.164 157.472 5.842C158.648 5.632 159.404 5.548 159.404 4.694C159.404 3.966 158.928 3.476 157.78 3.476C156.394 3.476 155.904 3.966 155.834 5.016H154.868C154.938 3.756 155.736 2.678 157.808 2.678C159.124 2.678 160.286 3.238 160.286 4.946V8.516C160.286 9.09 160.37 9.356 160.692 9.356C160.748 9.356 160.804 9.356 160.888 9.342V10C160.734 10.028 160.58 10.056 160.412 10.056C159.81 10.056 159.46 9.818 159.404 8.922H159.376C158.886 9.734 158.032 10.182 156.87 10.182ZM156.982 9.384C158.438 9.384 159.404 8.614 159.404 7.326V5.996C159.194 6.29 158.438 6.458 157.584 6.598C156.198 6.85 155.484 7.2 155.484 8.11C155.484 8.936 155.946 9.384 156.982 9.384ZM165.448 2.678C167.198 2.678 168.598 4.078 168.598 6.43C168.598 8.768 167.198 10.168 165.448 10.168C164.202 10.168 163.46 9.552 163.04 8.796H163.012V12.478H162.102V2.86H163.012V4.008H163.04C163.46 3.322 164.202 2.678 165.448 2.678ZM165.35 9.37C166.834 9.37 167.646 8.026 167.646 6.43C167.646 4.82 166.834 3.476 165.35 3.476C163.978 3.476 163.012 4.624 163.012 6.43C163.012 8.222 163.978 9.37 165.35 9.37ZM173.241 2.678C174.991 2.678 176.391 4.078 176.391 6.43C176.391 8.768 174.991 10.168 173.241 10.168C171.995 10.168 171.253 9.552 170.833 8.796H170.805V12.478H169.895V2.86H170.805V4.008H170.833C171.253 3.322 171.995 2.678 173.241 2.678ZM173.143 9.37C174.627 9.37 175.439 8.026 175.439 6.43C175.439 4.82 174.627 3.476 173.143 3.476C171.771 3.476 170.805 4.624 170.805 6.43C170.805 8.222 171.771 9.37 173.143 9.37ZM180.656 2.692C180.908 2.692 181.104 2.706 181.272 2.734V3.63C181.132 3.602 180.978 3.588 180.838 3.588C179.55 3.588 178.598 4.624 178.598 6.01V10H177.688V2.86H178.598V4.316H178.626C178.99 3.378 179.648 2.692 180.656 2.692ZM184.882 10.196C182.74 10.196 181.452 8.656 181.452 6.444C181.452 4.218 182.74 2.678 184.882 2.678C187.024 2.678 188.312 4.218 188.312 6.444C188.312 8.656 187.024 10.196 184.882 10.196ZM184.882 9.398C186.548 9.398 187.36 8.082 187.36 6.444C187.36 4.792 186.548 3.476 184.882 3.476C183.216 3.476 182.404 4.792 182.404 6.444C182.404 8.082 183.216 9.398 184.882 9.398ZM192.345 10H191.309L188.691 2.86H189.699L191.841 9.076H191.855L193.983 2.86H194.963L192.345 10ZM201.979 6.108C201.979 6.304 201.979 6.5 201.965 6.612H196.309C196.323 8.054 197.093 9.412 198.773 9.412C200.243 9.412 200.817 8.404 200.957 7.816H201.881C201.531 9.118 200.551 10.196 198.759 10.196C196.575 10.196 195.357 8.6 195.357 6.43C195.357 4.148 196.701 2.678 198.759 2.678C200.817 2.678 201.979 4.12 201.979 6.108ZM196.309 5.814H201.013C201.013 4.54 200.187 3.462 198.717 3.462C197.331 3.462 196.379 4.484 196.309 5.814ZM208.448 4.064V-0.0100005H209.358V10H208.448V8.838H208.42C208.014 9.538 207.258 10.182 206.012 10.182C204.276 10.182 202.876 8.782 202.876 6.43C202.876 4.092 204.276 2.692 206.012 2.692C207.258 2.692 208 3.308 208.42 4.064H208.448ZM206.124 9.384C207.496 9.384 208.448 8.236 208.448 6.43C208.448 4.638 207.496 3.49 206.124 3.49C204.64 3.49 203.828 4.834 203.828 6.43C203.828 8.04 204.64 9.384 206.124 9.384ZM211.943 7.424H211.369L211.131 3.014V-0.0100005H212.181V3.014L211.943 7.424ZM212.251 10H211.075V8.824H212.251V10ZM218.879 10.182C216.779 10.182 216.065 8.698 216.065 7.102V6.78H217.087V7.102C217.087 8.376 217.479 9.286 218.879 9.286C220.293 9.286 220.699 8.376 220.699 7.102V-0.0100005H221.721V7.102C221.721 8.698 220.979 10.182 218.879 10.182ZM228.18 7.368V2.86H229.09V10H228.18V8.992H228.152C227.746 9.58 226.976 10.168 225.702 10.168C224.428 10.168 223.364 9.454 223.364 7.872V2.86H224.274V7.676C224.274 8.586 224.694 9.37 225.926 9.37C227.284 9.37 228.18 8.418 228.18 7.368ZM233.408 10.182C231.406 10.182 230.314 9.09 230.272 7.662H231.224C231.28 8.642 231.924 9.384 233.422 9.384C234.78 9.384 235.242 8.754 235.242 8.054C235.242 7.004 234.178 6.892 233.184 6.654C231.868 6.318 230.538 5.996 230.538 4.61C230.538 3.448 231.462 2.692 233.072 2.692C234.934 2.692 235.802 3.686 235.928 4.862H234.976C234.85 4.232 234.472 3.49 233.086 3.49C232.064 3.49 231.49 3.882 231.49 4.554C231.49 5.45 232.456 5.576 233.534 5.842C234.878 6.164 236.208 6.542 236.208 8.026C236.208 9.328 235.172 10.182 233.408 10.182ZM240.055 2.86V3.658H238.613V8.166C238.613 9.048 238.809 9.258 239.509 9.258C239.733 9.258 239.845 9.244 240.055 9.23V10C239.775 10.042 239.607 10.056 239.383 10.056C238.347 10.056 237.703 9.706 237.703 8.152V3.658H236.653V2.86H237.703V0.48H238.613V2.86H240.055ZM247.335 10.196C245.193 10.196 243.905 8.656 243.905 6.444C243.905 4.218 245.193 2.678 247.335 2.678C249.477 2.678 250.765 4.218 250.765 6.444C250.765 8.656 249.477 10.196 247.335 10.196ZM247.335 9.398C249.001 9.398 249.813 8.082 249.813 6.444C249.813 4.792 249.001 3.476 247.335 3.476C245.669 3.476 244.857 4.792 244.857 6.444C244.857 8.082 245.669 9.398 247.335 9.398ZM255.437 2.692C256.711 2.692 257.775 3.406 257.775 4.988V10H256.865V5.184C256.865 4.274 256.445 3.49 255.213 3.49C253.855 3.49 252.959 4.442 252.959 5.492V10H252.049V2.86H252.959V3.882H252.987C253.393 3.294 254.163 2.692 255.437 2.692ZM265.648 6.108C265.648 6.304 265.648 6.5 265.634 6.612H259.978C259.992 8.054 260.762 9.412 262.442 9.412C263.912 9.412 264.486 8.404 264.626 7.816H265.55C265.2 9.118 264.22 10.196 262.428 10.196C260.244 10.196 259.026 8.6 259.026 6.43C259.026 4.148 260.37 2.678 262.428 2.678C264.486 2.678 265.648 4.12 265.648 6.108ZM259.978 5.814H264.682C264.682 4.54 263.856 3.462 262.386 3.462C261 3.462 260.048 4.484 259.978 5.814ZM277.406 2.692C278.764 2.692 279.506 3.504 279.506 4.988V10H278.596V5.184C278.596 4.288 278.386 3.49 277.21 3.49C275.95 3.49 275.208 4.456 275.208 5.492V10H274.298V5.184C274.298 4.288 274.088 3.49 272.898 3.49C271.652 3.49 270.896 4.456 270.896 5.492V10H269.986V2.86H270.896V3.868H270.924C271.302 3.294 271.974 2.692 273.094 2.692C274.102 2.692 274.746 3.154 275.012 4.008H275.04C275.502 3.294 276.272 2.692 277.406 2.692ZM284.167 10.196C282.025 10.196 280.737 8.656 280.737 6.444C280.737 4.218 282.025 2.678 284.167 2.678C286.309 2.678 287.597 4.218 287.597 6.444C287.597 8.656 286.309 10.196 284.167 10.196ZM284.167 9.398C285.833 9.398 286.645 8.082 286.645 6.444C286.645 4.792 285.833 3.476 284.167 3.476C282.501 3.476 281.689 4.792 281.689 6.444C281.689 8.082 282.501 9.398 284.167 9.398ZM291.849 2.692C292.101 2.692 292.297 2.706 292.465 2.734V3.63C292.325 3.602 292.171 3.588 292.031 3.588C290.743 3.588 289.791 4.624 289.791 6.01V10H288.881V2.86H289.791V4.316H289.819C290.183 3.378 290.841 2.692 291.849 2.692ZM299.281 6.108C299.281 6.304 299.281 6.5 299.267 6.612H293.611C293.625 8.054 294.395 9.412 296.075 9.412C297.545 9.412 298.119 8.404 298.259 7.816H299.183C298.833 9.118 297.853 10.196 296.061 10.196C293.877 10.196 292.659 8.6 292.659 6.43C292.659 4.148 294.003 2.678 296.061 2.678C298.119 2.678 299.281 4.12 299.281 6.108ZM293.611 5.814H298.315C298.315 4.54 297.489 3.462 296.019 3.462C294.633 3.462 293.681 4.484 293.611 5.814ZM306.251 10.182C304.249 10.182 303.157 9.09 303.115 7.662H304.067C304.123 8.642 304.767 9.384 306.265 9.384C307.623 9.384 308.085 8.754 308.085 8.054C308.085 7.004 307.021 6.892 306.027 6.654C304.711 6.318 303.381 5.996 303.381 4.61C303.381 3.448 304.305 2.692 305.915 2.692C307.777 2.692 308.645 3.686 308.771 4.862H307.819C307.693 4.232 307.315 3.49 305.929 3.49C304.907 3.49 304.333 3.882 304.333 4.554C304.333 5.45 305.299 5.576 306.377 5.842C307.721 6.164 309.051 6.542 309.051 8.026C309.051 9.328 308.015 10.182 306.251 10.182ZM312.898 2.86V3.658H311.456V8.166C311.456 9.048 311.652 9.258 312.352 9.258C312.576 9.258 312.688 9.244 312.898 9.23V10C312.618 10.042 312.45 10.056 312.226 10.056C311.19 10.056 310.546 9.706 310.546 8.152V3.658H309.496V2.86H310.546V0.48H311.456V2.86H312.898ZM320.158 6.108C320.158 6.304 320.158 6.5 320.144 6.612H314.488C314.502 8.054 315.272 9.412 316.952 9.412C318.422 9.412 318.996 8.404 319.136 7.816H320.06C319.71 9.118 318.73 10.196 316.938 10.196C314.754 10.196 313.536 8.6 313.536 6.43C313.536 4.148 314.88 2.678 316.938 2.678C318.996 2.678 320.158 4.12 320.158 6.108ZM314.488 5.814H319.192C319.192 4.54 318.366 3.462 316.896 3.462C315.51 3.462 314.558 4.484 314.488 5.814ZM324.78 2.678C326.53 2.678 327.93 4.078 327.93 6.43C327.93 8.768 326.53 10.168 324.78 10.168C323.534 10.168 322.792 9.552 322.372 8.796H322.344V12.478H321.434V2.86H322.344V4.008H322.372C322.792 3.322 323.534 2.678 324.78 2.678ZM324.682 9.37C326.166 9.37 326.978 8.026 326.978 6.43C326.978 4.82 326.166 3.476 324.682 3.476C323.31 3.476 322.344 4.624 322.344 6.43C322.344 8.222 323.31 9.37 324.682 9.37ZM342.961 6.892H328.961V5.982H342.961V6.892ZM347.707 2.678C349.457 2.678 350.857 4.078 350.857 6.43C350.857 8.768 349.457 10.168 347.707 10.168C346.461 10.168 345.719 9.552 345.299 8.796H345.271V12.478H344.361V2.86H345.271V4.008H345.299C345.719 3.322 346.461 2.678 347.707 2.678ZM347.609 9.37C349.093 9.37 349.905 8.026 349.905 6.43C349.905 4.82 349.093 3.476 347.609 3.476C346.237 3.476 345.271 4.624 345.271 6.43C345.271 8.222 346.237 9.37 347.609 9.37ZM355.122 2.692C355.374 2.692 355.57 2.706 355.738 2.734V3.63C355.598 3.602 355.444 3.588 355.304 3.588C354.016 3.588 353.064 4.624 353.064 6.01V10H352.154V2.86H353.064V4.316H353.092C353.456 3.378 354.114 2.692 355.122 2.692ZM359.349 10.196C357.207 10.196 355.919 8.656 355.919 6.444C355.919 4.218 357.207 2.678 359.349 2.678C361.491 2.678 362.779 4.218 362.779 6.444C362.779 8.656 361.491 10.196 359.349 10.196ZM359.349 9.398C361.015 9.398 361.827 8.082 361.827 6.444C361.827 4.792 361.015 3.476 359.349 3.476C357.683 3.476 356.871 4.792 356.871 6.444C356.871 8.082 357.683 9.398 359.349 9.398ZM367.087 10.182C365.043 10.182 363.671 8.67 363.671 6.43C363.671 4.204 365.043 2.692 367.087 2.692C368.823 2.692 369.999 3.854 370.153 5.366H369.201C369.145 4.568 368.571 3.49 367.087 3.49C365.337 3.49 364.623 4.974 364.623 6.43C364.623 7.9 365.337 9.398 367.087 9.398C368.585 9.398 369.145 8.32 369.201 7.452H370.153C370.055 8.992 368.823 10.182 367.087 10.182ZM377.621 6.108C377.621 6.304 377.621 6.5 377.607 6.612H371.951C371.965 8.054 372.735 9.412 374.415 9.412C375.885 9.412 376.459 8.404 376.599 7.816H377.523C377.173 9.118 376.193 10.196 374.401 10.196C372.217 10.196 370.999 8.6 370.999 6.43C370.999 4.148 372.343 2.678 374.401 2.678C376.459 2.678 377.621 4.12 377.621 6.108ZM371.951 5.814H376.655C376.655 4.54 375.829 3.462 374.359 3.462C372.973 3.462 372.021 4.484 371.951 5.814ZM385.141 6.108C385.141 6.304 385.141 6.5 385.127 6.612H379.471C379.485 8.054 380.255 9.412 381.935 9.412C383.405 9.412 383.979 8.404 384.119 7.816H385.043C384.693 9.118 383.713 10.196 381.921 10.196C379.737 10.196 378.519 8.6 378.519 6.43C378.519 4.148 379.863 2.678 381.921 2.678C383.979 2.678 385.141 4.12 385.141 6.108ZM379.471 5.814H384.175C384.175 4.54 383.349 3.462 381.879 3.462C380.493 3.462 379.541 4.484 379.471 5.814ZM391.61 4.064V-0.0100005H392.52V10H391.61V8.838H391.582C391.176 9.538 390.42 10.182 389.174 10.182C387.438 10.182 386.038 8.782 386.038 6.43C386.038 4.092 387.438 2.692 389.174 2.692C390.42 2.692 391.162 3.308 391.582 4.064H391.61ZM389.286 9.384C390.658 9.384 391.61 8.236 391.61 6.43C391.61 4.638 390.658 3.49 389.286 3.49C387.802 3.49 386.99 4.834 386.99 6.43C386.99 8.04 387.802 9.384 389.286 9.384ZM400.016 2.86V3.658H398.574V8.166C398.574 9.048 398.77 9.258 399.47 9.258C399.694 9.258 399.806 9.244 400.016 9.23V10C399.736 10.042 399.568 10.056 399.344 10.056C398.308 10.056 397.664 9.706 397.664 8.152V3.658H396.614V2.86H397.664V0.48H398.574V2.86H400.016ZM404.069 10.196C401.927 10.196 400.639 8.656 400.639 6.444C400.639 4.218 401.927 2.678 404.069 2.678C406.211 2.678 407.499 4.218 407.499 6.444C407.499 8.656 406.211 10.196 404.069 10.196ZM404.069 9.398C405.735 9.398 406.547 8.082 406.547 6.444C406.547 4.792 405.735 3.476 404.069 3.476C402.403 3.476 401.591 4.792 401.591 6.444C401.591 8.082 402.403 9.398 404.069 9.398ZM90.3613 23.86V24.658H88.9193V29.166C88.9193 30.048 89.1153 30.258 89.8153 30.258C90.0393 30.258 90.1513 30.244 90.3613 30.23V31C90.0813 31.042 89.9133 31.056 89.6893 31.056C88.6533 31.056 88.0093 30.706 88.0093 29.152V24.658H86.9593V23.86H88.0093V21.48H88.9193V23.86H90.3613ZM94.9292 23.692C96.2032 23.692 97.2672 24.406 97.2672 25.988V31H96.3572V26.184C96.3572 25.274 95.9372 24.49 94.7052 24.49C93.3472 24.49 92.4512 25.442 92.4512 26.492V31H91.5412V20.99H92.4512V24.882H92.4792C92.8852 24.294 93.6552 23.692 94.9292 23.692ZM105.141 27.108C105.141 27.304 105.141 27.5 105.127 27.612H99.4706C99.4846 29.054 100.255 30.412 101.935 30.412C103.405 30.412 103.979 29.404 104.119 28.816H105.043C104.693 30.118 103.713 31.196 101.921 31.196C99.7366 31.196 98.5186 29.6 98.5186 27.43C98.5186 25.148 99.8626 23.678 101.921 23.678C103.979 23.678 105.141 25.12 105.141 27.108ZM99.4706 26.814H104.175C104.175 25.54 103.349 24.462 101.879 24.462C100.493 24.462 99.5406 25.484 99.4706 26.814ZM112.825 23.678C114.575 23.678 115.975 25.078 115.975 27.43C115.975 29.768 114.575 31.168 112.825 31.168C111.579 31.168 110.837 30.552 110.417 29.796H110.389V33.478H109.479V23.86H110.389V25.008H110.417C110.837 24.322 111.579 23.678 112.825 23.678ZM112.727 30.37C114.211 30.37 115.023 29.026 115.023 27.43C115.023 25.82 114.211 24.476 112.727 24.476C111.355 24.476 110.389 25.624 110.389 27.43C110.389 29.222 111.355 30.37 112.727 30.37ZM119.232 31.182C117.804 31.182 116.894 30.384 116.894 29.194C116.894 27.654 117.986 27.164 119.834 26.842C121.01 26.632 121.766 26.548 121.766 25.694C121.766 24.966 121.29 24.476 120.142 24.476C118.756 24.476 118.266 24.966 118.196 26.016H117.23C117.3 24.756 118.098 23.678 120.17 23.678C121.486 23.678 122.648 24.238 122.648 25.946V29.516C122.648 30.09 122.732 30.356 123.054 30.356C123.11 30.356 123.166 30.356 123.25 30.342V31C123.096 31.028 122.942 31.056 122.774 31.056C122.172 31.056 121.822 30.818 121.766 29.922H121.738C121.248 30.734 120.394 31.182 119.232 31.182ZM119.344 30.384C120.8 30.384 121.766 29.614 121.766 28.326V26.996C121.556 27.29 120.8 27.458 119.946 27.598C118.56 27.85 117.846 28.2 117.846 29.11C117.846 29.936 118.308 30.384 119.344 30.384ZM124.888 33.506C124.664 33.506 124.496 33.492 124.202 33.45V32.666C124.412 32.694 124.524 32.708 124.748 32.708C125.42 32.708 125.966 32.274 126.358 30.958L123.474 23.86H124.482L126.806 29.81H126.834L129.046 23.86H130.026L127.17 31.21C126.47 32.988 125.84 33.506 124.888 33.506ZM138.418 23.692C139.776 23.692 140.518 24.504 140.518 25.988V31H139.608V26.184C139.608 25.288 139.398 24.49 138.222 24.49C136.962 24.49 136.22 25.456 136.22 26.492V31H135.31V26.184C135.31 25.288 135.1 24.49 133.91 24.49C132.664 24.49 131.908 25.456 131.908 26.492V31H130.998V23.86H131.908V24.868H131.936C132.314 24.294 132.986 23.692 134.106 23.692C135.114 23.692 135.758 24.154 136.024 25.008H136.052C136.514 24.294 137.284 23.692 138.418 23.692ZM148.385 27.108C148.385 27.304 148.385 27.5 148.371 27.612H142.715C142.729 29.054 143.499 30.412 145.179 30.412C146.649 30.412 147.223 29.404 147.363 28.816H148.287C147.937 30.118 146.957 31.196 145.165 31.196C142.981 31.196 141.763 29.6 141.763 27.43C141.763 25.148 143.107 23.678 145.165 23.678C147.223 23.678 148.385 25.12 148.385 27.108ZM142.715 26.814H147.419C147.419 25.54 146.593 24.462 145.123 24.462C143.737 24.462 142.785 25.484 142.715 26.814ZM153.048 23.692C154.322 23.692 155.386 24.406 155.386 25.988V31H154.476V26.184C154.476 25.274 154.056 24.49 152.824 24.49C151.466 24.49 150.57 25.442 150.57 26.492V31H149.66V23.86H150.57V24.882H150.598C151.004 24.294 151.774 23.692 153.048 23.692ZM159.691 23.86V24.658H158.249V29.166C158.249 30.048 158.445 30.258 159.145 30.258C159.369 30.258 159.481 30.244 159.691 30.23V31C159.411 31.042 159.243 31.056 159.019 31.056C157.983 31.056 157.339 30.706 157.339 29.152V24.658H156.289V23.86H157.339V21.48H158.249V23.86H159.691ZM167.28 23.678C169.03 23.678 170.43 25.078 170.43 27.43C170.43 29.768 169.03 31.168 167.28 31.168C166.034 31.168 165.292 30.552 164.872 29.796H164.844V33.478H163.934V23.86H164.844V25.008H164.872C165.292 24.322 166.034 23.678 167.28 23.678ZM167.182 30.37C168.666 30.37 169.478 29.026 169.478 27.43C169.478 25.82 168.666 24.476 167.182 24.476C165.81 24.476 164.844 25.624 164.844 27.43C164.844 29.222 165.81 30.37 167.182 30.37ZM174.765 31.196C172.623 31.196 171.335 29.656 171.335 27.444C171.335 25.218 172.623 23.678 174.765 23.678C176.907 23.678 178.195 25.218 178.195 27.444C178.195 29.656 176.907 31.196 174.765 31.196ZM174.765 30.398C176.431 30.398 177.243 29.082 177.243 27.444C177.243 25.792 176.431 24.476 174.765 24.476C173.099 24.476 172.287 25.792 172.287 27.444C172.287 29.082 173.099 30.398 174.765 30.398ZM182.447 23.692C182.699 23.692 182.895 23.706 183.063 23.734V24.63C182.923 24.602 182.769 24.588 182.629 24.588C181.341 24.588 180.389 25.624 180.389 27.01V31H179.479V23.86H180.389V25.316H180.417C180.781 24.378 181.439 23.692 182.447 23.692ZM186.775 23.86V24.658H185.333V29.166C185.333 30.048 185.529 30.258 186.229 30.258C186.453 30.258 186.565 30.244 186.775 30.23V31C186.495 31.042 186.327 31.056 186.103 31.056C185.067 31.056 184.423 30.706 184.423 29.152V24.658H183.373V23.86H184.423V21.48H185.333V23.86H186.775ZM189.915 31.182C188.487 31.182 187.577 30.384 187.577 29.194C187.577 27.654 188.669 27.164 190.517 26.842C191.693 26.632 192.449 26.548 192.449 25.694C192.449 24.966 191.973 24.476 190.825 24.476C189.439 24.476 188.949 24.966 188.879 26.016H187.913C187.983 24.756 188.781 23.678 190.853 23.678C192.169 23.678 193.331 24.238 193.331 25.946V29.516C193.331 30.09 193.415 30.356 193.737 30.356C193.793 30.356 193.849 30.356 193.933 30.342V31C193.779 31.028 193.625 31.056 193.457 31.056C192.855 31.056 192.505 30.818 192.449 29.922H192.421C191.931 30.734 191.077 31.182 189.915 31.182ZM190.027 30.384C191.483 30.384 192.449 29.614 192.449 28.326V26.996C192.239 27.29 191.483 27.458 190.629 27.598C189.243 27.85 188.529 28.2 188.529 29.11C188.529 29.936 188.991 30.384 190.027 30.384ZM196.057 31H195.147V20.99H196.057V31ZM203.537 23.86V24.658H202.095V29.166C202.095 30.048 202.291 30.258 202.991 30.258C203.215 30.258 203.327 30.244 203.537 30.23V31C203.257 31.042 203.089 31.056 202.865 31.056C201.829 31.056 201.185 30.706 201.185 29.152V24.658H200.135V23.86H201.185V21.48H202.095V23.86H203.537ZM207.591 31.196C205.449 31.196 204.161 29.656 204.161 27.444C204.161 25.218 205.449 23.678 207.591 23.678C209.733 23.678 211.021 25.218 211.021 27.444C211.021 29.656 209.733 31.196 207.591 31.196ZM207.591 30.398C209.257 30.398 210.069 29.082 210.069 27.444C210.069 25.792 209.257 24.476 207.591 24.476C205.925 24.476 205.113 25.792 205.113 27.444C205.113 29.082 205.925 30.398 207.591 30.398ZM215.801 23.86V22.81C215.801 21.256 216.417 20.906 217.439 20.906C217.635 20.906 217.803 20.92 218.125 20.962V21.732C217.873 21.718 217.761 21.704 217.565 21.704C216.879 21.704 216.711 21.914 216.711 22.796V23.86H218.125V24.658H216.711V31H215.801V24.658H214.793V23.86H215.801ZM218.965 22.432V21.256H220.141V22.432H218.965ZM220.001 31H219.091V23.86H220.001V31ZM225.072 23.692C226.346 23.692 227.41 24.406 227.41 25.988V31H226.5V26.184C226.5 25.274 226.08 24.49 224.848 24.49C223.49 24.49 222.594 25.442 222.594 26.492V31H221.684V23.86H222.594V24.882H222.622C223.028 24.294 223.798 23.692 225.072 23.692ZM230.999 31.182C229.571 31.182 228.661 30.384 228.661 29.194C228.661 27.654 229.753 27.164 231.601 26.842C232.777 26.632 233.533 26.548 233.533 25.694C233.533 24.966 233.057 24.476 231.909 24.476C230.523 24.476 230.033 24.966 229.963 26.016H228.997C229.067 24.756 229.865 23.678 231.937 23.678C233.253 23.678 234.415 24.238 234.415 25.946V29.516C234.415 30.09 234.499 30.356 234.821 30.356C234.877 30.356 234.933 30.356 235.017 30.342V31C234.863 31.028 234.709 31.056 234.541 31.056C233.939 31.056 233.589 30.818 233.533 29.922H233.505C233.015 30.734 232.161 31.182 230.999 31.182ZM231.111 30.384C232.567 30.384 233.533 29.614 233.533 28.326V26.996C233.323 27.29 232.567 27.458 231.713 27.598C230.327 27.85 229.613 28.2 229.613 29.11C229.613 29.936 230.075 30.384 231.111 30.384ZM237.141 31H236.231V20.99H237.141V31ZM239.851 22.432H238.675V21.256H239.851V22.432ZM239.725 31H238.815V23.86H239.725V31ZM246.467 31H240.811V30.3L245.053 24.686V24.658H241.035V23.86H246.313V24.434L241.987 30.174V30.202H246.467V31ZM253.658 27.108C253.658 27.304 253.658 27.5 253.644 27.612H247.988C248.002 29.054 248.772 30.412 250.452 30.412C251.922 30.412 252.496 29.404 252.636 28.816H253.56C253.21 30.118 252.23 31.196 250.438 31.196C248.254 31.196 247.036 29.6 247.036 27.43C247.036 25.148 248.38 23.678 250.438 23.678C252.496 23.678 253.658 25.12 253.658 27.108ZM247.988 26.814H252.692C252.692 25.54 251.866 24.462 250.396 24.462C249.01 24.462 248.058 25.484 247.988 26.814ZM264.24 27.108C264.24 27.304 264.24 27.5 264.226 27.612H258.57C258.584 29.054 259.354 30.412 261.034 30.412C262.504 30.412 263.078 29.404 263.218 28.816H264.142C263.792 30.118 262.812 31.196 261.02 31.196C258.836 31.196 257.618 29.6 257.618 27.43C257.618 25.148 258.962 23.678 261.02 23.678C263.078 23.678 264.24 25.12 264.24 27.108ZM258.57 26.814H263.274C263.274 25.54 262.448 24.462 260.978 24.462C259.592 24.462 258.64 25.484 258.57 26.814ZM268.292 31H267.256L264.638 23.86H265.646L267.788 30.076H267.802L269.93 23.86H270.91L268.292 31ZM277.926 27.108C277.926 27.304 277.926 27.5 277.912 27.612H272.256C272.27 29.054 273.04 30.412 274.72 30.412C276.19 30.412 276.764 29.404 276.904 28.816H277.828C277.478 30.118 276.498 31.196 274.706 31.196C272.522 31.196 271.304 29.6 271.304 27.43C271.304 25.148 272.648 23.678 274.706 23.678C276.764 23.678 277.926 25.12 277.926 27.108ZM272.256 26.814H276.96C276.96 25.54 276.134 24.462 274.664 24.462C273.278 24.462 272.326 25.484 272.256 26.814ZM282.169 23.692C282.421 23.692 282.617 23.706 282.785 23.734V24.63C282.645 24.602 282.491 24.588 282.351 24.588C281.063 24.588 280.111 25.624 280.111 27.01V31H279.201V23.86H280.111V25.316H280.139C280.503 24.378 281.161 23.692 282.169 23.692ZM284.384 33.506C284.16 33.506 283.992 33.492 283.698 33.45V32.666C283.908 32.694 284.02 32.708 284.244 32.708C284.916 32.708 285.462 32.274 285.854 30.958L282.97 23.86H283.978L286.302 29.81H286.33L288.542 23.86H289.522L286.666 31.21C285.966 32.988 285.336 33.506 284.384 33.506ZM293.238 23.86V24.658H291.796V29.166C291.796 30.048 291.992 30.258 292.692 30.258C292.916 30.258 293.028 30.244 293.238 30.23V31C292.958 31.042 292.79 31.056 292.566 31.056C291.53 31.056 290.886 30.706 290.886 29.152V24.658H289.836V23.86H290.886V21.48H291.796V23.86H293.238ZM297.806 23.692C299.08 23.692 300.144 24.406 300.144 25.988V31H299.234V26.184C299.234 25.274 298.814 24.49 297.582 24.49C296.224 24.49 295.328 25.442 295.328 26.492V31H294.418V20.99H295.328V24.882H295.356C295.762 24.294 296.532 23.692 297.806 23.692ZM302.81 22.432H301.634V21.256H302.81V22.432ZM302.684 31H301.774V23.86H302.684V31ZM307.746 23.692C309.02 23.692 310.084 24.406 310.084 25.988V31H309.174V26.184C309.174 25.274 308.754 24.49 307.522 24.49C306.164 24.49 305.268 25.442 305.268 26.492V31H304.358V23.86H305.268V24.882H305.296C305.702 24.294 306.472 23.692 307.746 23.692ZM316.935 24.98V23.86H317.845V30.552C317.845 32.582 316.585 33.562 314.625 33.562C312.693 33.562 311.671 32.624 311.559 31.378H312.511C312.651 32.148 313.253 32.764 314.639 32.764C316.081 32.764 316.935 32.134 316.935 30.678V29.348H316.907C316.487 30.09 315.703 30.664 314.499 30.664C312.791 30.664 311.363 29.544 311.363 27.164C311.363 24.812 312.791 23.692 314.499 23.692C315.703 23.692 316.487 24.266 316.907 24.98H316.935ZM314.625 29.866C315.941 29.866 316.935 28.998 316.935 27.164C316.935 25.358 315.941 24.49 314.625 24.49C313.155 24.49 312.315 25.554 312.315 27.164C312.315 28.802 313.155 29.866 314.625 29.866ZM320.528 31H319.352V29.824H320.528V31Z" fill="#534B68"/>
</svg>
