<svg width="266" height="22" viewBox="0 0 266 22" fill="none" xmlns="http://www.w3.org/2000/svg">
<path d="M7.48 18H5.26V12.28L0.14 3.7H2.52L6.36 10.54H6.4L10.24 3.7H12.6L7.48 12.28V18ZM16.0655 18.3C12.8855 18.3 10.9655 16.1 10.9655 12.9C10.9655 9.72 12.8855 7.48 16.0855 7.48C19.2455 7.48 21.1655 9.7 21.1655 12.88C21.1655 16.08 19.2455 18.3 16.0655 18.3ZM16.0855 16.68C18.1655 16.68 19.1255 15.02 19.1255 12.9C19.1255 10.76 18.1655 9.12 16.0855 9.12C13.9655 9.12 13.0055 10.76 13.0055 12.9C13.0055 15.02 13.9655 16.68 16.0855 16.68ZM29.3536 14.06V7.8H31.3136V18H29.3536V16.72H29.3136C28.7736 17.5 27.7136 18.28 25.9536 18.28C24.0736 18.28 22.5536 17.2 22.5536 14.86V7.8H24.5136V14.32C24.5136 15.7 25.1136 16.62 26.5936 16.62C28.2736 16.62 29.3536 15.6 29.3536 14.06ZM38.0525 7.56C38.4125 7.56 38.6925 7.58 38.9925 7.62V9.5C38.7525 9.46 38.5725 9.44 38.3325 9.44C36.5525 9.44 35.2725 10.78 35.2725 12.72V18H33.3125V7.8H35.2725V9.74H35.3125C35.8525 8.46 36.6725 7.56 38.0525 7.56ZM44.2711 18H41.9511L47.2711 3.7H49.6511L55.0111 18H52.6111L51.4311 14.56H45.4511L44.2711 18ZM48.4311 5.74L46.1111 12.7H50.8111L48.4711 5.74H48.4311ZM61.1142 7.5C63.7142 7.5 65.6942 9.54 65.6942 12.9C65.6942 16.26 63.7142 18.28 61.1142 18.28C59.5142 18.28 58.5342 17.56 57.9742 16.74H57.9342V21.54H55.9742V7.8H57.9342V9H57.9742C58.5342 8.28 59.5142 7.5 61.1142 7.5ZM60.7942 16.66C62.7142 16.66 63.6342 14.9 63.6342 12.9C63.6342 10.9 62.7142 9.14 60.7942 9.14C59.0342 9.14 57.9542 10.58 57.9542 12.9C57.9542 15.2 59.0342 16.66 60.7942 16.66ZM72.3205 7.5C74.9205 7.5 76.9005 9.54 76.9005 12.9C76.9005 16.26 74.9205 18.28 72.3205 18.28C70.7205 18.28 69.7405 17.56 69.1805 16.74H69.1405V21.54H67.1805V7.8H69.1405V9H69.1805C69.7405 8.28 70.7205 7.5 72.3205 7.5ZM72.0005 16.66C73.9205 16.66 74.8405 14.9 74.8405 12.9C74.8405 10.9 73.9205 9.14 72.0005 9.14C70.2405 9.14 69.1605 10.58 69.1605 12.9C69.1605 15.2 70.2405 16.66 72.0005 16.66ZM80.3467 18H78.3867V3.7H80.3467V18ZM84.4469 5.98H82.2269V3.86H84.4469V5.98ZM84.3069 18H82.3469V7.8H84.3069V18ZM90.787 18.3C87.747 18.3 85.767 16.1 85.767 12.9C85.767 9.7 87.747 7.5 90.767 7.5C93.387 7.5 95.127 9.2 95.367 11.5H93.347C93.247 10.44 92.647 9.12 90.787 9.12C88.607 9.12 87.807 10.98 87.807 12.9C87.807 14.82 88.607 16.66 90.787 16.66C92.667 16.66 93.247 15.38 93.347 14.22H95.367C95.227 16.56 93.407 18.3 90.787 18.3ZM99.552 18.28C97.512 18.28 96.212 17.1 96.212 15.36C96.212 13.08 97.932 12.4 100.472 11.92C102.072 11.62 103.052 11.42 103.052 10.42C103.052 9.68 102.612 9.06 101.112 9.06C99.332 9.06 98.792 9.62 98.692 10.98H96.692C96.792 9.02 98.072 7.48 101.192 7.48C103.292 7.48 104.972 8.36 104.972 11V15.68C104.972 16.42 105.072 16.8 105.452 16.8C105.512 16.8 105.572 16.8 105.692 16.78V17.98C105.352 18.06 105.012 18.1 104.692 18.1C103.712 18.1 103.192 17.72 103.072 16.56H103.032C102.372 17.62 101.212 18.28 99.552 18.28ZM99.992 16.7C101.752 16.7 103.052 15.8 103.052 14.02V12.56C102.732 12.86 101.852 13.08 100.812 13.3C99.012 13.66 98.252 14.16 98.252 15.22C98.252 16.18 98.772 16.7 99.992 16.7ZM110.722 16.5C111.062 16.5 111.222 16.48 111.562 16.42V18C111.062 18.1 110.742 18.12 110.322 18.12C108.642 18.12 107.622 17.48 107.622 15.12V9.42H106.142V7.8H107.622V4.52H109.582V7.8H111.542V9.42H109.582V15.18C109.582 16.26 109.882 16.5 110.722 16.5ZM115.073 5.98H112.853V3.86H115.073V5.98ZM114.933 18H112.973V7.8H114.933V18ZM121.493 18.3C118.313 18.3 116.393 16.1 116.393 12.9C116.393 9.72 118.313 7.48 121.513 7.48C124.673 7.48 126.593 9.7 126.593 12.88C126.593 16.08 124.673 18.3 121.493 18.3ZM121.513 16.68C123.593 16.68 124.553 15.02 124.553 12.9C124.553 10.76 123.593 9.12 121.513 9.12C119.393 9.12 118.433 10.76 118.433 12.9C118.433 15.02 119.393 16.68 121.513 16.68ZM133.421 7.5C135.301 7.5 136.821 8.58 136.821 10.92V18H134.861V11.46C134.861 10.1 134.261 9.18 132.781 9.18C131.101 9.18 130.021 10.2 130.021 11.74V18H128.061V7.8H130.021V9.08H130.061C130.601 8.3 131.661 7.5 133.421 7.5ZM145.24 18H143.04V3.7H145.24V18ZM151.422 18.28C148.322 18.28 146.782 16.68 146.722 14.6H148.702C148.782 15.78 149.502 16.7 151.402 16.7C153.122 16.7 153.582 15.94 153.582 15.2C153.582 13.92 152.222 13.78 150.902 13.5C149.122 13.08 147.082 12.56 147.082 10.44C147.082 8.68 148.502 7.5 150.962 7.5C153.762 7.5 155.102 9 155.242 10.76H153.262C153.122 9.98 152.702 9.08 151.002 9.08C149.682 9.08 149.122 9.6 149.122 10.36C149.122 11.42 150.262 11.52 151.702 11.84C153.582 12.28 155.622 12.82 155.622 15.1C155.622 17.08 154.102 18.28 151.422 18.28ZM161.623 18H159.303L164.623 3.7H167.003L172.363 18H169.963L168.783 14.56H162.803L161.623 18ZM165.783 5.74L163.463 12.7H168.163L165.823 5.74H165.783ZM178.466 7.5C181.066 7.5 183.046 9.54 183.046 12.9C183.046 16.26 181.066 18.28 178.466 18.28C176.866 18.28 175.886 17.56 175.326 16.74H175.286V21.54H173.326V7.8H175.286V9H175.326C175.886 8.28 176.866 7.5 178.466 7.5ZM178.146 16.66C180.066 16.66 180.986 14.9 180.986 12.9C180.986 10.9 180.066 9.14 178.146 9.14C176.386 9.14 175.306 10.58 175.306 12.9C175.306 15.2 176.386 16.66 178.146 16.66ZM189.672 7.5C192.272 7.5 194.252 9.54 194.252 12.9C194.252 16.26 192.272 18.28 189.672 18.28C188.072 18.28 187.092 17.56 186.532 16.74H186.492V21.54H184.532V7.8H186.492V9H186.532C187.092 8.28 188.072 7.5 189.672 7.5ZM189.352 16.66C191.272 16.66 192.192 14.9 192.192 12.9C192.192 10.9 191.272 9.14 189.352 9.14C187.592 9.14 186.512 10.58 186.512 12.9C186.512 15.2 187.592 16.66 189.352 16.66ZM200.478 7.56C200.838 7.56 201.118 7.58 201.418 7.62V9.5C201.178 9.46 200.998 9.44 200.758 9.44C198.978 9.44 197.698 10.78 197.698 12.72V18H195.738V7.8H197.698V9.74H197.738C198.278 8.46 199.098 7.56 200.478 7.56ZM206.622 18.3C203.442 18.3 201.522 16.1 201.522 12.9C201.522 9.72 203.442 7.48 206.642 7.48C209.802 7.48 211.722 9.7 211.722 12.88C211.722 16.08 209.802 18.3 206.622 18.3ZM206.642 16.68C208.722 16.68 209.682 15.02 209.682 12.9C209.682 10.76 208.722 9.12 206.642 9.12C204.522 9.12 203.562 10.76 203.562 12.9C203.562 15.02 204.522 16.68 206.642 16.68ZM217.738 18H215.538L211.898 7.8H213.998L216.678 15.98H216.698L219.338 7.8H221.378L217.738 18ZM231.451 12.68C231.451 12.96 231.451 13.26 231.431 13.42H223.591C223.631 15.12 224.631 16.7 226.651 16.7C228.451 16.7 229.151 15.54 229.331 14.86H231.331C230.791 16.82 229.291 18.3 226.611 18.3C223.371 18.3 221.571 16 221.571 12.88C221.571 9.68 223.491 7.48 226.611 7.48C229.711 7.48 231.451 9.52 231.451 12.68ZM223.591 11.88H229.411C229.411 10.28 228.291 9.08 226.551 9.08C224.911 9.08 223.711 10.2 223.591 11.88ZM240.147 9.04V3.7H242.107V18H240.147V16.8H240.107C239.547 17.52 238.567 18.28 236.967 18.28C234.367 18.28 232.387 16.26 232.387 12.9C232.387 9.54 234.367 7.5 236.967 7.5C238.567 7.5 239.547 8.24 240.107 9.04H240.147ZM237.287 16.66C239.047 16.66 240.127 15.2 240.127 12.9C240.127 10.58 239.047 9.14 237.287 9.14C235.367 9.14 234.427 10.9 234.427 12.9C234.427 14.9 235.367 16.66 237.287 16.66ZM245.833 14.1H244.693L244.173 7.58V3.7H246.333V7.58L245.833 14.1ZM246.353 18H244.173V15.82H246.353V18Z" fill="black"/>
<path d="M264.875 11.5C264.875 9.76562 263.938 8.17188 262.438 7.28125C260.914 6.41406 259.062 6.41406 257.562 7.28125C256.039 8.17188 255.125 9.76562 255.125 11.5C255.125 13.2578 256.039 14.8516 257.562 15.7422C259.062 16.6094 260.914 16.6094 262.438 15.7422C263.938 14.8516 264.875 13.2578 264.875 11.5ZM254 11.5C254 9.36719 255.125 7.39844 257 6.32031C258.852 5.24219 261.125 5.24219 263 6.32031C264.852 7.39844 266 9.36719 266 11.5C266 13.6562 264.852 15.625 263 16.7031C261.125 17.7812 258.852 17.7812 257 16.7031C255.125 15.625 254 13.6562 254 11.5ZM257.961 9.39062C258.148 8.85156 258.641 8.5 259.203 8.5H260.562C261.383 8.5 262.062 9.17969 262.062 10C262.062 10.5156 261.758 11.0078 261.312 11.2656L260.562 11.7109C260.539 12.0156 260.305 12.25 260 12.25C259.672 12.25 259.438 12.0156 259.438 11.6875V11.3828C259.438 11.1719 259.531 10.9844 259.719 10.8906L260.75 10.3047C260.867 10.2344 260.938 10.1172 260.938 10C260.938 9.78906 260.773 9.64844 260.562 9.64844H259.203C259.133 9.64844 259.062 9.69531 259.039 9.76562L259.016 9.78906C258.922 10.0938 258.594 10.2344 258.312 10.1406C258.008 10.0234 257.867 9.69531 257.961 9.41406V9.39062ZM259.25 13.75C259.25 13.3516 259.578 13 260 13C260.398 13 260.75 13.3516 260.75 13.75C260.75 14.1719 260.398 14.5 260 14.5C259.578 14.5 259.25 14.1719 259.25 13.75Z" fill="#3371F2" fill-opacity="0.5"/>
</svg>
