<svg width="24" height="25" viewBox="0 0 24 25" fill="none" xmlns="http://www.w3.org/2000/svg">
<g clip-path="url(#clip0_1_4518)">
<path d="M19.5792 18.6884L19.0302 18.5659L20.7661 10.7885C21.4866 7.56091 19.6961 4.3612 16.691 3.22458L16.8897 2.33476C17.0025 1.82923 16.6844 1.32838 16.1789 1.21554C15.6734 1.1027 15.1725 1.42076 15.0597 1.92629L14.8611 2.81612C11.6579 2.56703 8.67679 4.70168 7.95636 7.92928L6.2204 15.7066L5.67141 15.5841C5.26653 15.4937 4.86641 15.7478 4.77604 16.1527L4.61265 16.8847C4.59019 16.9853 4.65416 17.0861 4.7548 17.1085L9.69572 18.2114C9.38018 19.625 10.2722 21.0297 11.6858 21.3452C13.0995 21.6607 14.5041 20.7687 14.8196 19.3551L19.7605 20.4579C19.8612 20.4804 19.9619 20.4164 19.9844 20.3158L20.1478 19.5838C20.2381 19.1789 19.984 18.7788 19.5792 18.6884ZM12.0126 19.8812C11.4064 19.7459 11.0244 19.1443 11.1597 18.5382L13.3557 19.0283C13.2204 19.6345 12.6188 20.0165 12.0126 19.8812ZM7.86737 16.0743L9.60334 8.2969C9.88722 7.02507 10.6478 5.9413 11.7475 5.24298C12.8471 4.54467 14.1514 4.3171 15.4233 4.60098C16.6951 4.88486 17.7789 5.64548 18.4772 6.7451C19.1755 7.84473 19.4031 9.14907 19.1192 10.4209L17.3832 18.1983L7.86737 16.0743Z" fill="white"/>
</g>
<defs>
<clipPath id="clip0_1_4518">
<rect width="24" height="24" fill="white" transform="translate(0 0.5)"/>
</clipPath>
</defs>
</svg>
