<svg width="24" height="25" viewBox="0 0 24 25" fill="none" xmlns="http://www.w3.org/2000/svg">
<path d="M12 2C6.20156 2 1.5 6.70156 1.5 12.5C1.5 18.2984 6.20156 23 12 23C17.7984 23 22.5 18.2984 22.5 12.5C22.5 6.70156 17.7984 2 12 2ZM16.5352 9.07109L11.5992 15.9148C11.5302 16.0111 11.4393 16.0896 11.3339 16.1437C11.2286 16.1978 11.1118 16.2261 10.9934 16.2261C10.8749 16.2261 10.7582 16.1978 10.6528 16.1437C10.5474 16.0896 10.4565 16.0111 10.3875 15.9148L7.46484 11.8648C7.37578 11.7406 7.46484 11.5672 7.61719 11.5672H8.71641C8.95547 11.5672 9.18281 11.682 9.32344 11.8789L10.9922 14.1945L14.6766 9.08516C14.8172 8.89062 15.0422 8.77344 15.2836 8.77344H16.3828C16.5352 8.77344 16.6242 8.94688 16.5352 9.07109Z" fill="#7CBB5B"/>
</svg>
