<svg width="12" height="13" viewBox="0 0 12 13" fill="none" xmlns="http://www.w3.org/2000/svg">
<path d="M10.875 6.5C10.875 4.76562 9.9375 3.17188 8.4375 2.28125C6.91406 1.41406 5.0625 1.41406 3.5625 2.28125C2.03906 3.17188 1.125 4.76562 1.125 6.5C1.125 8.25781 2.03906 9.85156 3.5625 10.7422C5.0625 11.6094 6.91406 11.6094 8.4375 10.7422C9.9375 9.85156 10.875 8.25781 10.875 6.5ZM0 6.5C0 4.36719 1.125 2.39844 3 1.32031C4.85156 0.242188 7.125 0.242188 9 1.32031C10.8516 2.39844 12 4.36719 12 6.5C12 8.65625 10.8516 10.625 9 11.7031C7.125 12.7812 4.85156 12.7812 3 11.7031C1.125 10.625 0 8.65625 0 6.5ZM3.96094 4.39062C4.14844 3.85156 4.64062 3.5 5.20312 3.5H6.5625C7.38281 3.5 8.0625 4.17969 8.0625 5C8.0625 5.51562 7.75781 6.00781 7.3125 6.26562L6.5625 6.71094C6.53906 7.01562 6.30469 7.25 6 7.25C5.67188 7.25 5.4375 7.01562 5.4375 6.6875V6.38281C5.4375 6.17188 5.53125 5.98438 5.71875 5.89062L6.75 5.30469C6.86719 5.23438 6.9375 5.11719 6.9375 5C6.9375 4.78906 6.77344 4.64844 6.5625 4.64844H5.20312C5.13281 4.64844 5.0625 4.69531 5.03906 4.76562L5.01562 4.78906C4.92188 5.09375 4.59375 5.23438 4.3125 5.14062C4.00781 5.02344 3.86719 4.69531 3.96094 4.41406V4.39062ZM5.25 8.75C5.25 8.35156 5.57812 8 6 8C6.39844 8 6.75 8.35156 6.75 8.75C6.75 9.17188 6.39844 9.5 6 9.5C5.57812 9.5 5.25 9.17188 5.25 8.75Z" fill="#3371F2" fill-opacity="0.5"/>
</svg>
