<svg width="55" height="54" viewBox="0 0 55 54" fill="none" xmlns="http://www.w3.org/2000/svg">
<path d="M27.5 3.375C14.4535 3.375 3.875 13.9535 3.875 27C3.875 40.0465 14.4535 50.625 27.5 50.625C40.5465 50.625 51.125 40.0465 51.125 27C51.125 13.9535 40.5465 3.375 27.5 3.375ZM36.2223 35.9754L32.7418 35.9596L27.5 29.7105L22.2635 35.9543L18.7777 35.9701C18.5457 35.9701 18.3559 35.7855 18.3559 35.5482C18.3559 35.448 18.3928 35.3531 18.4561 35.274L25.3168 27.1002L18.4561 18.9316C18.3923 18.8544 18.357 18.7576 18.3559 18.6574C18.3559 18.4254 18.5457 18.2355 18.7777 18.2355L22.2635 18.2514L27.5 24.5004L32.7365 18.2566L36.217 18.2408C36.449 18.2408 36.6389 18.4254 36.6389 18.6627C36.6389 18.7629 36.602 18.8578 36.5387 18.9369L29.6885 27.1055L36.5439 35.2793C36.6072 35.3584 36.6441 35.4533 36.6441 35.5535C36.6441 35.7855 36.4543 35.9754 36.2223 35.9754Z" fill="#FF4D4F"/>
</svg>
