<svg width="26" height="18" viewBox="0 0 26 18" fill="none" xmlns="http://www.w3.org/2000/svg">
<path d="M14.3281 3.76562C13.4688 2.78906 12.2188 2.125 10.8125 2.125C8.19531 2.125 6.125 4.23438 6.125 6.8125V6.85156C6.125 7.63281 5.61719 8.33594 4.875 8.60938C3.39062 9.11719 2.375 10.5234 2.375 12.125C2.375 14.1953 4.05469 15.875 6.125 15.875H20.1875H20.3047C20.3047 15.875 20.3438 15.875 20.3828 15.875C22.1797 15.7969 23.625 14.2734 23.625 12.4375C23.625 11.0312 22.7656 9.82031 21.5547 9.3125C20.7734 8.96094 20.3047 8.14062 20.4609 7.28125C20.4609 7.125 20.5 6.96875 20.5 6.8125C20.5 5.28906 19.2109 4 17.6875 4C17.2578 4 16.8672 4.11719 16.5156 4.27344C15.7734 4.58594 14.875 4.39062 14.3281 3.76562ZM20.5 17.75H20.1875H18.625H6.125C3 17.75 0.5 15.25 0.5 12.125C0.5 9.70312 2.0625 7.59375 4.25 6.85156V6.8125C4.25 3.21875 7.17969 0.25 10.8125 0.25C12.7656 0.25 14.5625 1.14844 15.7734 2.55469C16.3594 2.28125 16.9844 2.125 17.6875 2.125C20.2656 2.125 22.375 4.23438 22.375 6.8125C22.375 7.08594 22.3359 7.32031 22.2969 7.59375C24.1719 8.41406 25.5 10.2891 25.5 12.4375C25.5 15.2891 23.2734 17.5938 20.5 17.75ZM9.21094 8.96094H9.17188L12.2969 5.83594C12.6875 5.48438 13.2734 5.48438 13.625 5.83594L16.75 8.96094C17.1406 9.35156 17.1406 9.9375 16.75 10.2891C16.3984 10.6797 15.8125 10.6797 15.4219 10.2891L13.8984 8.76562V14C13.8984 14.5469 13.5078 14.9375 12.9609 14.9375C12.4531 14.9375 12.0234 14.5469 12.0234 14V8.76562L10.5 10.2891C10.1484 10.6797 9.5625 10.6797 9.21094 10.2891C8.82031 9.9375 8.82031 9.35156 9.21094 8.96094Z" fill="white"/>
</svg>
