<svg width="109" height="18" viewBox="0 0 109 18" fill="none" xmlns="http://www.w3.org/2000/svg">
<path d="M105.722 14.8038V3.17578H108.04V14.8038H105.722Z" fill="#0F012A"/>
<path d="M93.4629 14.8038L98.2877 3.17578H100.18L104.988 14.8038H102.516L98.7992 5.25989H99.6516L95.8838 14.8038H93.4629ZM96.0202 12.637V10.7513H102.465V12.637H96.0202Z" fill="#0F012A"/>
<path d="M90.2893 14.8038V3.17578H92.5738V14.8038H90.2893ZM87.9365 5.12756V3.17578H92.4033V5.12756H87.9365Z" fill="#0F012A"/>
<path d="M80.3199 14.8038L76.6885 6.8147H79.1435L81.752 13.3978H80.5415L83.1671 6.8147H85.5368L81.9225 14.8038H80.3199Z" fill="#0F012A"/>
<path d="M72.7379 14.9692C71.9082 14.9692 71.1581 14.7873 70.4875 14.4234C69.8283 14.0485 69.2997 13.5468 68.9019 12.9182C68.5155 12.2787 68.3223 11.5674 68.3223 10.7845C68.3223 10.0016 68.5155 9.30135 68.9019 8.68384C69.2884 8.0553 69.8169 7.55908 70.4875 7.19519C71.1581 6.82027 71.9025 6.63281 72.7209 6.63281C73.562 6.63281 74.3121 6.82027 74.9713 7.19519C75.6419 7.55908 76.1704 8.0553 76.5569 8.68384C76.9433 9.30135 77.1365 10.0016 77.1365 10.7845C77.1365 11.5674 76.9433 12.2787 76.5569 12.9182C76.1704 13.5468 75.6419 14.0485 74.9713 14.4234C74.3121 14.7873 73.5676 14.9692 72.7379 14.9692ZM72.7209 12.9513C73.1414 12.9513 73.5108 12.8631 73.8291 12.6867C74.1587 12.4992 74.4087 12.2456 74.5792 11.9258C74.7611 11.595 74.852 11.2201 74.852 10.801C74.852 10.382 74.7611 10.0126 74.5792 9.69281C74.3973 9.37303 74.1473 9.12492 73.8291 8.94849C73.5108 8.76103 73.1414 8.6673 72.7209 8.6673C72.3117 8.6673 71.948 8.76103 71.6298 8.94849C71.3115 9.12492 71.0615 9.37303 70.8796 9.69281C70.6977 10.0126 70.6068 10.382 70.6068 10.801C70.6068 11.2201 70.6977 11.595 70.8796 11.9258C71.0615 12.2456 71.3115 12.4992 71.6298 12.6867C71.948 12.8631 72.3117 12.9513 72.7209 12.9513Z" fill="#0F012A"/>
<path d="M65.5174 14.8038V10.222C65.5174 9.74789 65.364 9.36194 65.0571 9.06421C64.7502 8.76648 64.3524 8.61762 63.8637 8.61762C63.5455 8.61762 63.2613 8.68378 63.0113 8.8161C62.7612 8.94843 62.5623 9.13589 62.4146 9.37848C62.2782 9.62108 62.21 9.90227 62.21 10.222L61.3405 9.792C61.3405 9.16345 61.4769 8.61762 61.7496 8.15448C62.0338 7.68032 62.4202 7.31091 62.909 7.04627C63.4091 6.78162 63.9717 6.64929 64.5968 6.64929C65.1992 6.64929 65.7391 6.79816 66.2165 7.09589C66.6938 7.38259 67.0689 7.76302 67.3417 8.23718C67.6145 8.70032 67.7509 9.20205 67.7509 9.74237V14.8038H65.5174ZM59.9766 14.8038V6.8147H62.21V14.8038H59.9766Z" fill="#0F012A"/>
<path d="M55.1634 14.9692C54.436 14.9692 53.7881 14.8204 53.2198 14.5227C52.6629 14.2249 52.2253 13.8114 51.9071 13.2821C51.5888 12.7528 51.4297 12.1408 51.4297 11.4461V6.81476H53.6801V11.3965C53.6801 11.7273 53.737 12.014 53.8506 12.2566C53.9643 12.4882 54.1348 12.6646 54.3621 12.7859C54.5894 12.9072 54.8565 12.9678 55.1634 12.9678C55.6294 12.9678 55.9931 12.83 56.2545 12.5543C56.5159 12.2787 56.6466 11.8927 56.6466 11.3965V6.81476H58.88V11.4461C58.88 12.1518 58.7209 12.7694 58.4027 13.2987C58.0958 13.8279 57.6582 14.2415 57.0899 14.5392C56.533 14.8259 55.8908 14.9692 55.1634 14.9692Z" fill="#0F012A"/>
<path d="M43.8125 13.5632L48.177 8.05524H50.8707L46.5062 13.5632H43.8125ZM43.8125 14.8038V13.5632L45.5856 12.9182H50.7684V14.8038H43.8125ZM44.1194 8.70032V6.8147H50.8707V8.05524L49.0806 8.70032H44.1194Z" fill="#0F012A"/>
<path d="M38.4944 14.9692C37.7443 14.9692 37.068 14.7872 36.4656 14.4233C35.8632 14.0595 35.3915 13.5632 35.0505 12.9347C34.7096 12.3062 34.5391 11.6004 34.5391 10.8175C34.5391 10.0236 34.7096 9.31232 35.0505 8.68378C35.3915 8.05524 35.8632 7.55902 36.4656 7.19513C37.068 6.83124 37.7443 6.64929 38.4944 6.64929C39.0854 6.64929 39.6139 6.76508 40.0799 6.99664C40.546 7.22821 40.9153 7.55351 41.1881 7.97254C41.4723 8.38054 41.6257 8.84367 41.6484 9.36194V12.24C41.6257 12.7693 41.4723 13.2379 41.1881 13.6459C40.9153 14.0539 40.546 14.3792 40.0799 14.6218C39.6139 14.8534 39.0854 14.9692 38.4944 14.9692ZM38.9036 12.9678C39.5287 12.9678 40.0345 12.7693 40.4209 12.3723C40.8074 11.9643 41.0006 11.4405 41.0006 10.801C41.0006 10.3819 40.9097 10.0125 40.7278 9.69275C40.5573 9.36194 40.3129 9.10832 39.9947 8.93189C39.6878 8.74443 39.3241 8.6507 38.9036 8.6507C38.4944 8.6507 38.1307 8.74443 37.8124 8.93189C37.5056 9.10832 37.2612 9.36194 37.0793 9.69275C36.9089 10.0125 36.8236 10.3819 36.8236 10.801C36.8236 11.231 36.9089 11.6115 37.0793 11.9423C37.2612 12.262 37.5056 12.5157 37.8124 12.7031C38.1307 12.8796 38.4944 12.9678 38.9036 12.9678ZM40.8812 14.8038V12.6535L41.2393 10.7017L40.8812 8.78302V6.8147H43.0976V14.8038H40.8812Z" fill="#0F012A"/>
<path d="M32.2448 14.8038L27.0449 8.7334L32.1084 3.17578H35.0067L29.3635 9.21308V8.17102L35.1943 14.8038H32.2448ZM24.999 14.8038V3.17578H27.3177V14.8038H24.999Z" fill="#0F012A"/>
<path fill-rule="evenodd" clip-rule="evenodd" d="M18.6638 3.78571C18.6638 5.87651 16.9064 7.57143 14.7385 7.57143C10.9344 7.57143 7.85065 10.5455 7.85065 14.2143C7.85065 16.3051 6.09323 18 3.92533 18C1.75743 18 0 16.3051 0 14.2143C0 12.8578 0.739717 11.668 1.85131 10.9995C3.47404 10.0227 3.68298 8.10174 1.85157 7.0006C0.739823 6.33217 0 5.14226 0 3.78571C0 1.69492 1.75743 0 3.92532 0C6.09322 0 7.85065 1.69492 7.85065 3.78571C7.85065 5.14227 7.11083 6.33217 5.99908 7.0006C4.67058 7.79936 4.41573 9.02954 4.99536 10.0178C5.10733 10.2087 5.34257 10.2915 5.56394 10.2394C8.57691 9.53035 10.8132 6.9099 10.8132 3.78571C10.8132 1.69492 12.5706 0 14.7385 0C16.9064 0 18.6638 1.69492 18.6638 3.78571ZM14.7893 17.9757C16.9572 17.9757 18.7146 16.2808 18.7146 14.19C18.7146 12.0992 16.9572 10.4043 14.7893 10.4043C12.6214 10.4043 10.864 12.0992 10.864 14.19C10.864 16.2808 12.6214 17.9757 14.7893 17.9757Z" fill="#0F012A"/>
</svg>
