<svg width="17" height="17" viewBox="0 0 17 17" fill="none" xmlns="http://www.w3.org/2000/svg">
<path d="M8.40156 10.8281C8.41326 10.8431 8.42819 10.8551 8.44525 10.8635C8.46231 10.8718 8.48103 10.8761 8.5 10.8761C8.51897 10.8761 8.53769 10.8718 8.55475 10.8635C8.5718 10.8551 8.58674 10.8431 8.59844 10.8281L10.3484 8.61406C10.4125 8.53281 10.3547 8.4125 10.25 8.4125H9.09219V3.125C9.09219 3.05625 9.03594 3 8.96719 3H8.02969C7.96094 3 7.90469 3.05625 7.90469 3.125V8.41094H6.75C6.64531 8.41094 6.5875 8.53125 6.65156 8.6125L8.40156 10.8281ZM14.2188 10.2812H13.2812C13.2125 10.2812 13.1562 10.3375 13.1562 10.4062V12.8125H3.84375V10.4062C3.84375 10.3375 3.7875 10.2812 3.71875 10.2812H2.78125C2.7125 10.2812 2.65625 10.3375 2.65625 10.4062V13.5C2.65625 13.7766 2.87969 14 3.15625 14H13.8438C14.1203 14 14.3438 13.7766 14.3438 13.5V10.4062C14.3438 10.3375 14.2875 10.2812 14.2188 10.2812Z" fill="#3371F2"/>
</svg>
