<svg width="24" height="25" viewBox="0 0 24 25" fill="none" xmlns="http://www.w3.org/2000/svg">
<path d="M12.0234 4.625C11.8511 4.625 11.6804 4.65895 11.5212 4.72491C11.3619 4.79087 11.2172 4.88755 11.0954 5.00942C10.9735 5.1313 10.8768 5.27599 10.8108 5.43523C10.7449 5.59447 10.7109 5.76514 10.7109 5.9375C10.7109 6.10986 10.7449 6.28053 10.8108 6.43977C10.8768 6.59901 10.9735 6.7437 11.0954 6.86558C11.2172 6.98745 11.3619 7.08413 11.5212 7.15009C11.6804 7.21605 11.8511 7.25 12.0234 7.25C12.1958 7.25 12.3665 7.21605 12.5257 7.15009C12.6849 7.08413 12.8296 6.98745 12.9515 6.86558C13.0734 6.7437 13.1701 6.59901 13.236 6.43977C13.302 6.28053 13.3359 6.10986 13.3359 5.9375C13.3359 5.76514 13.302 5.59447 13.236 5.43523C13.1701 5.27599 13.0734 5.1313 12.9515 5.00942C12.8296 4.88755 12.6849 4.79087 12.5257 4.72491C12.3665 4.65895 12.1958 4.625 12.0234 4.625ZM12.0234 11.1875C11.6753 11.1875 11.3415 11.3258 11.0954 11.5719C10.8492 11.8181 10.7109 12.1519 10.7109 12.5C10.7109 12.8481 10.8492 13.1819 11.0954 13.4281C11.3415 13.6742 11.6753 13.8125 12.0234 13.8125C12.3715 13.8125 12.7054 13.6742 12.9515 13.4281C13.1977 13.1819 13.3359 12.8481 13.3359 12.5C13.3359 12.1519 13.1977 11.8181 12.9515 11.5719C12.7054 11.3258 12.3715 11.1875 12.0234 11.1875ZM12.0234 17.75C11.6753 17.75 11.3415 17.8883 11.0954 18.1344C10.8492 18.3806 10.7109 18.7144 10.7109 19.0625C10.7109 19.4106 10.8492 19.7444 11.0954 19.9906C11.3415 20.2367 11.6753 20.375 12.0234 20.375C12.3715 20.375 12.7054 20.2367 12.9515 19.9906C13.1977 19.7444 13.3359 19.4106 13.3359 19.0625C13.3359 18.7144 13.1977 18.3806 12.9515 18.1344C12.7054 17.8883 12.3715 17.75 12.0234 17.75Z" fill="black" fill-opacity="0.45"/>
</svg>
