<svg width="24" height="25" viewBox="0 0 24 25" fill="none" xmlns="http://www.w3.org/2000/svg">
<path d="M3 22.25H4.5V24.5H3C1.3125 24.5 0 23.1875 0 21.5V3.5C0 1.85938 1.3125 0.5 3 0.5H10.7344C11.5312 0.5 12.2812 0.828125 12.8438 1.39062L17.1094 5.65625C17.6719 6.21875 18 6.96875 18 7.76562V14H15.75V8H12C11.1562 8 10.5 7.34375 10.5 6.5V2.75H3C2.57812 2.75 2.25 3.125 2.25 3.5V21.5C2.25 21.9219 2.57812 22.25 3 22.25ZM8.25 17H9.75C11.1562 17 12.375 18.2188 12.375 19.625C12.375 21.0781 11.1562 22.25 9.75 22.25H9V23.75C9 24.1719 8.625 24.5 8.25 24.5C7.82812 24.5 7.5 24.1719 7.5 23.75V21.5V17.75C7.5 17.375 7.82812 17 8.25 17ZM9.75 20.75C10.3594 20.75 10.875 20.2812 10.875 19.625C10.875 19.0156 10.3594 18.5 9.75 18.5H9V20.75H9.75ZM14.25 17H15.75C16.9688 17 18 18.0312 18 19.25V22.25C18 23.5156 16.9688 24.5 15.75 24.5H14.25C13.8281 24.5 13.5 24.1719 13.5 23.75V17.75C13.5 17.375 13.8281 17 14.25 17ZM15.75 23C16.125 23 16.5 22.6719 16.5 22.25V19.25C16.5 18.875 16.125 18.5 15.75 18.5H15V23H15.75ZM19.5 17.75C19.5 17.375 19.8281 17 20.25 17H22.5C22.875 17 23.25 17.375 23.25 17.75C23.25 18.1719 22.875 18.5 22.5 18.5H21V20H22.5C22.875 20 23.25 20.375 23.25 20.75C23.25 21.1719 22.875 21.5 22.5 21.5H21V23.75C21 24.1719 20.625 24.5 20.25 24.5C19.8281 24.5 19.5 24.1719 19.5 23.75V20.75V17.75Z" fill="#3371F2"/>
</svg>
