<svg width="19" height="19" viewBox="0 0 19 19" fill="none" xmlns="http://www.w3.org/2000/svg">
<path d="M13.2983 5.40767H16.3968C16.4509 5.40918 16.5048 5.39963 16.5551 5.3796C16.6055 5.35957 16.6512 5.32948 16.6895 5.29118C16.7278 5.25287 16.7579 5.20715 16.7779 5.15682C16.7979 5.10649 16.8075 5.05259 16.806 4.99844C16.8095 4.94408 16.8008 4.88963 16.7806 4.83905C16.7604 4.78847 16.7291 4.74306 16.6891 4.70613L12.8306 0.847672C12.7937 0.807627 12.7483 0.776344 12.6977 0.756114C12.6471 0.735884 12.5926 0.727217 12.5383 0.730749C12.4841 0.729237 12.4302 0.738789 12.3799 0.758819C12.3296 0.77885 12.2839 0.808938 12.2456 0.847245C12.2073 0.885551 12.1772 0.931269 12.1571 0.981603C12.1371 1.03194 12.1275 1.08583 12.1291 1.13998V4.23844C12.13 4.54824 12.2535 4.84508 12.4726 5.06415C12.6916 5.28321 12.9885 5.40671 13.2983 5.40767Z" fill="#3371F2"/>
<path d="M16.2222 7.16173H12.1299C11.665 7.16076 11.2195 6.97567 10.8908 6.64697C10.5621 6.31827 10.377 5.87273 10.376 5.40788V1.31557C10.376 1.16052 10.3144 1.01182 10.2048 0.902187C10.0952 0.79255 9.94646 0.730957 9.79141 0.730957H3.94525C3.4804 0.731922 3.03486 0.917012 2.70616 1.24571C2.37746 1.57441 2.19237 2.01995 2.19141 2.4848V16.5156C2.19237 16.9804 2.37746 17.426 2.70616 17.7547C3.03486 18.0834 3.4804 18.2685 3.94525 18.2694H15.0529C15.5178 18.2685 15.9633 18.0834 16.292 17.7547C16.6207 17.426 16.8058 16.9804 16.8068 16.5156V7.74634C16.8068 7.66957 16.7917 7.59355 16.7623 7.52262C16.7329 7.45169 16.6898 7.38724 16.6356 7.33296C16.5813 7.27867 16.5168 7.23561 16.4459 7.20623C16.375 7.17685 16.2989 7.16173 16.2222 7.16173ZM4.52987 6.57711C4.5364 6.42585 4.60064 6.28285 4.70938 6.17751C4.81812 6.07216 4.96309 6.01249 5.11448 6.01077H7.50775C7.58261 6.01028 7.65682 6.02455 7.72616 6.05275C7.7955 6.08095 7.85861 6.12254 7.91188 6.17513C7.96515 6.22772 8.00753 6.29029 8.03662 6.35926C8.06571 6.42823 8.08093 6.50226 8.08141 6.57711V7.15807C8.07678 7.31035 8.01397 7.45506 7.90591 7.56244C7.79785 7.66982 7.65274 7.73171 7.50044 7.73538H5.11448C5.03826 7.73687 4.96252 7.72296 4.89181 7.69447C4.82109 7.66599 4.75685 7.62352 4.70295 7.56961C4.64904 7.5157 4.60657 7.45147 4.57808 7.38075C4.5496 7.31003 4.53569 7.23429 4.53718 7.15807L4.52987 6.57711ZM13.2991 14.1661C13.2991 14.3212 13.2375 14.4699 13.1279 14.5795C13.0182 14.6892 12.8695 14.7508 12.7145 14.7508H5.11448C4.95943 14.7508 4.81073 14.6892 4.7011 14.5795C4.59146 14.4699 4.52987 14.3212 4.52987 14.1661V13.5925C4.52987 13.4374 4.59146 13.2887 4.7011 13.1791C4.81073 13.0695 4.95943 13.0079 5.11448 13.0079H12.7145C12.8695 13.0079 13.0182 13.0695 13.1279 13.1791C13.2375 13.2887 13.2991 13.4374 13.2991 13.5925V14.1661ZM14.4683 10.6585C14.4698 10.7361 14.4557 10.8133 14.427 10.8855C14.3983 10.9577 14.3555 11.0235 14.301 11.0789C14.2466 11.1344 14.1817 11.1784 14.11 11.2085C14.0383 11.2386 13.9614 11.254 13.8837 11.254H5.11448C4.95943 11.254 4.81073 11.1924 4.7011 11.0828C4.59146 10.9732 4.52987 10.8245 4.52987 10.6694V10.0848C4.52987 9.92975 4.59146 9.78105 4.7011 9.67142C4.81073 9.56178 4.95943 9.50019 5.11448 9.50019H13.8837C14.0388 9.50019 14.1875 9.56178 14.2971 9.67142C14.4067 9.78105 14.4683 9.92975 14.4683 10.0848V10.6585Z" fill="#3371F2"/>
</svg>
