<svg width="434" height="45" viewBox="0 0 434 45" fill="none" xmlns="http://www.w3.org/2000/svg">
<rect x="0.75" y="0.75" width="432.5" height="43.5" rx="5.25" fill="white"/>
<rect x="0.75" y="0.75" width="432.5" height="43.5" rx="5.25" stroke="#E1E1E1" stroke-width="1.5"/>
<path d="M29.328 28.708C26.576 28.708 24.592 27.284 24.432 24.708H25.648C25.808 26.484 26.896 27.684 29.28 27.684C31.392 27.684 32.112 26.676 32.112 25.412C32.128 23.716 30.944 23.428 28.592 22.9C26.72 22.468 24.912 21.892 24.912 19.796C24.912 17.972 26.368 16.852 28.72 16.852C31.2 16.852 32.768 18.116 32.944 20.356H31.728C31.536 18.772 30.656 17.876 28.72 17.876C27.04 17.876 26.128 18.564 26.128 19.748C26.128 21.284 27.488 21.604 29.168 21.972C31.52 22.484 33.328 23.06 33.328 25.38C33.328 27.236 32.048 28.708 29.328 28.708ZM41.9554 24.052C41.9554 24.276 41.9554 24.5 41.9394 24.628H35.4754C35.4914 26.276 36.3714 27.828 38.2914 27.828C39.9714 27.828 40.6274 26.676 40.7874 26.004H41.8434C41.4434 27.492 40.3234 28.724 38.2754 28.724C35.7794 28.724 34.3874 26.9 34.3874 24.42C34.3874 21.812 35.9234 20.132 38.2754 20.132C40.6274 20.132 41.9554 21.78 41.9554 24.052ZM35.4754 23.716H40.8514C40.8514 22.26 39.9074 21.028 38.2274 21.028C36.6434 21.028 35.5554 22.196 35.4754 23.716ZM45.6531 28.708C44.0211 28.708 42.9811 27.796 42.9811 26.436C42.9811 24.676 44.2291 24.116 46.3411 23.748C47.6851 23.508 48.5491 23.412 48.5491 22.436C48.5491 21.604 48.0051 21.044 46.6931 21.044C45.1091 21.044 44.5491 21.604 44.4691 22.804H43.3651C43.4451 21.364 44.3571 20.132 46.7251 20.132C48.2291 20.132 49.5571 20.772 49.5571 22.724V26.804C49.5571 27.46 49.6531 27.764 50.0211 27.764C50.0851 27.764 50.1491 27.764 50.2451 27.748V28.5C50.0691 28.532 49.8931 28.564 49.7011 28.564C49.0131 28.564 48.6131 28.292 48.5491 27.268H48.5171C47.9571 28.196 46.9811 28.708 45.6531 28.708ZM45.7811 27.796C47.4451 27.796 48.5491 26.916 48.5491 25.444V23.924C48.3091 24.26 47.4451 24.452 46.4691 24.612C44.8851 24.9 44.0691 25.3 44.0691 26.34C44.0691 27.284 44.5971 27.796 45.7811 27.796ZM55.0239 20.148C55.3119 20.148 55.5359 20.164 55.7279 20.196V21.22C55.5679 21.188 55.3919 21.172 55.2319 21.172C53.7599 21.172 52.6719 22.356 52.6719 23.94V28.5H51.6319V20.34H52.6719V22.004H52.7039C53.1199 20.932 53.8719 20.148 55.0239 20.148ZM59.8379 28.708C57.5019 28.708 55.9339 26.98 55.9339 24.42C55.9339 21.876 57.5019 20.148 59.8379 20.148C61.8219 20.148 63.1659 21.476 63.3419 23.204H62.2539C62.1899 22.292 61.5339 21.06 59.8379 21.06C57.8379 21.06 57.0219 22.756 57.0219 24.42C57.0219 26.1 57.8379 27.812 59.8379 27.812C61.5499 27.812 62.1899 26.58 62.2539 25.588H63.3419C63.2299 27.348 61.8219 28.708 59.8379 28.708ZM68.6133 20.148C70.0693 20.148 71.2853 20.964 71.2853 22.772V28.5H70.2453V22.996C70.2453 21.956 69.7653 21.06 68.3573 21.06C66.8053 21.06 65.7812 22.148 65.7812 23.348V28.5H64.7413V17.06H65.7812V21.508H65.8133C66.2773 20.836 67.1573 20.148 68.6133 20.148ZM78.8875 28.708C77.2555 28.708 76.2155 27.796 76.2155 26.436C76.2155 24.676 77.4635 24.116 79.5755 23.748C80.9195 23.508 81.7835 23.412 81.7835 22.436C81.7835 21.604 81.2395 21.044 79.9275 21.044C78.3435 21.044 77.7835 21.604 77.7035 22.804H76.5995C76.6795 21.364 77.5915 20.132 79.9595 20.132C81.4635 20.132 82.7915 20.772 82.7915 22.724V26.804C82.7915 27.46 82.8875 27.764 83.2555 27.764C83.3195 27.764 83.3835 27.764 83.4795 27.748V28.5C83.3035 28.532 83.1275 28.564 82.9355 28.564C82.2475 28.564 81.8475 28.292 81.7835 27.268H81.7515C81.1915 28.196 80.2155 28.708 78.8875 28.708ZM79.0155 27.796C80.6795 27.796 81.7835 26.916 81.7835 25.444V23.924C81.5435 24.26 80.6795 24.452 79.7035 24.612C78.1195 24.9 77.3035 25.3 77.3035 26.34C77.3035 27.284 77.8315 27.796 79.0155 27.796ZM88.7383 20.148C90.1943 20.148 91.4103 20.964 91.4103 22.772V28.5H90.3703V22.996C90.3703 21.956 89.8903 21.06 88.4823 21.06C86.9303 21.06 85.9062 22.148 85.9062 23.348V28.5H84.8663V20.34H85.9062V21.508H85.9383C86.4023 20.836 87.2823 20.148 88.7383 20.148ZM93.8675 31.364C93.6115 31.364 93.4195 31.348 93.0835 31.3V30.404C93.3235 30.436 93.4515 30.452 93.7075 30.452C94.4755 30.452 95.0995 29.956 95.5475 28.452L92.2515 20.34H93.4035L96.0595 27.14H96.0915L98.6195 20.34H99.7395L96.4755 28.74C95.6755 30.772 94.9555 31.364 93.8675 31.364ZM103.987 20.34V21.252H102.339V26.404C102.339 27.412 102.563 27.652 103.363 27.652C103.619 27.652 103.747 27.636 103.987 27.62V28.5C103.667 28.548 103.475 28.564 103.219 28.564C102.035 28.564 101.299 28.164 101.299 26.388V21.252H100.099V20.34H101.299V17.62H102.339V20.34H103.987ZM109.207 20.148C110.663 20.148 111.879 20.964 111.879 22.772V28.5H110.839V22.996C110.839 21.956 110.359 21.06 108.951 21.06C107.399 21.06 106.375 22.148 106.375 23.348V28.5H105.335V17.06H106.375V21.508H106.407C106.871 20.836 107.751 20.148 109.207 20.148ZM114.925 18.708H113.581V17.364H114.925V18.708ZM114.781 28.5H113.741V20.34H114.781V28.5ZM120.566 20.148C122.022 20.148 123.238 20.964 123.238 22.772V28.5H122.198V22.996C122.198 21.956 121.718 21.06 120.31 21.06C118.758 21.06 117.734 22.148 117.734 23.348V28.5H116.694V20.34H117.734V21.508H117.766C118.23 20.836 119.11 20.148 120.566 20.148ZM131.069 21.62V20.34H132.109V27.988C132.109 30.308 130.669 31.428 128.429 31.428C126.221 31.428 125.053 30.356 124.925 28.932H126.013C126.173 29.812 126.861 30.516 128.445 30.516C130.093 30.516 131.069 29.796 131.069 28.132V26.612H131.037C130.557 27.46 129.661 28.116 128.285 28.116C126.333 28.116 124.701 26.836 124.701 24.116C124.701 21.428 126.333 20.148 128.285 20.148C129.661 20.148 130.557 20.804 131.037 21.62H131.069ZM128.429 27.204C129.933 27.204 131.069 26.212 131.069 24.116C131.069 22.052 129.933 21.06 128.429 21.06C126.749 21.06 125.789 22.276 125.789 24.116C125.789 25.988 126.749 27.204 128.429 27.204ZM141.379 20.148C142.835 20.148 144.051 20.964 144.051 22.772V28.5H143.011V22.996C143.011 21.956 142.531 21.06 141.123 21.06C139.571 21.06 138.547 22.148 138.547 23.348V28.5H137.507V17.06H138.547V21.508H138.579C139.043 20.836 139.923 20.148 141.379 20.148ZM153.049 24.052C153.049 24.276 153.049 24.5 153.033 24.628H146.569C146.585 26.276 147.465 27.828 149.385 27.828C151.065 27.828 151.721 26.676 151.881 26.004H152.937C152.537 27.492 151.417 28.724 149.369 28.724C146.873 28.724 145.481 26.9 145.481 24.42C145.481 21.812 147.017 20.132 149.369 20.132C151.721 20.132 153.049 21.78 153.049 24.052ZM146.569 23.716H151.945C151.945 22.26 151.001 21.028 149.321 21.028C147.737 21.028 146.649 22.196 146.569 23.716ZM157.899 20.148C158.187 20.148 158.411 20.164 158.603 20.196V21.22C158.443 21.188 158.267 21.172 158.107 21.172C156.635 21.172 155.547 22.356 155.547 23.94V28.5H154.507V20.34H155.547V22.004H155.579C155.995 20.932 156.747 20.148 157.899 20.148ZM166.393 24.052C166.393 24.276 166.393 24.5 166.377 24.628H159.913C159.929 26.276 160.809 27.828 162.729 27.828C164.409 27.828 165.065 26.676 165.225 26.004H166.281C165.881 27.492 164.761 28.724 162.713 28.724C160.217 28.724 158.825 26.9 158.825 24.42C158.825 21.812 160.361 20.132 162.713 20.132C165.065 20.132 166.393 21.78 166.393 24.052ZM159.913 23.716H165.289C165.289 22.26 164.345 21.028 162.665 21.028C161.081 21.028 159.993 22.196 159.913 23.716ZM168.753 28.5H167.409V27.156H168.753V28.5ZM171.675 28.5H170.331V27.156H171.675V28.5ZM174.597 28.5H173.253V27.156H174.597V28.5ZM177.519 28.5H176.175V27.156H177.519V28.5Z" fill="#6F677F"/>
<path fill-rule="evenodd" clip-rule="evenodd" d="M406.794 26.3286H405.891L405.57 26.0199C406.691 24.7163 407.366 23.0239 407.366 21.1828C407.366 17.0776 404.038 13.75 399.933 13.75C395.828 13.75 392.5 17.0776 392.5 21.1828C392.5 25.288 395.828 28.6156 399.933 28.6156C401.774 28.6156 403.466 27.941 404.77 26.8203L405.079 27.1405V28.0439L410.796 33.75L412.5 32.0462L406.794 26.3286ZM399.932 26.3286C397.085 26.3286 394.786 24.0302 394.786 21.1828C394.786 18.3355 397.085 16.037 399.932 16.037C402.779 16.037 405.078 18.3355 405.078 21.1828C405.078 24.0302 402.779 26.3286 399.932 26.3286Z" fill="#6F677F"/>
</svg>
