<svg width="183" height="27" viewBox="0 0 183 27" fill="none" xmlns="http://www.w3.org/2000/svg">
<path d="M17.1805 26.7198L5.54034 12.8928L16.8752 0.233795H23.3631L10.7307 13.9854V11.6119L23.783 26.7198H17.1805ZM0.960602 26.7198V0.233795H6.15097V26.7198H0.960602Z" fill="white"/>
<path d="M33.6371 26.7198C31.9579 26.7198 30.444 26.3054 29.0955 25.4765C27.7471 24.6476 26.6912 23.5174 25.9279 22.0857C25.1646 20.654 24.783 19.0465 24.783 17.2632C24.783 15.4548 25.1646 13.8347 25.9279 12.403C26.6912 10.9714 27.7471 9.84109 29.0955 9.01223C30.444 8.18336 31.9579 7.76893 33.6371 7.76893C34.9601 7.76893 36.1432 8.03266 37.1864 8.56012C38.2296 9.08758 39.0565 9.82853 39.6671 10.783C40.3032 11.7123 40.6467 12.7672 40.6975 13.9477V20.5033C40.6467 21.7089 40.3032 22.7764 39.6671 23.7057C39.0565 24.6351 38.2296 25.376 37.1864 25.9286C36.1432 26.4561 34.9601 26.7198 33.6371 26.7198ZM34.5531 22.161C35.9524 22.161 37.0846 21.7089 37.9497 20.8047C38.8148 19.8754 39.2473 18.6823 39.2473 17.2255C39.2473 16.2711 39.0437 15.4297 38.6367 14.7013C38.255 13.9477 37.708 13.37 36.9956 12.9682C36.3086 12.5412 35.4945 12.3277 34.5531 12.3277C33.6371 12.3277 32.8229 12.5412 32.1105 12.9682C31.4236 13.37 30.8766 13.9477 30.4695 14.7013C30.0878 15.4297 29.897 16.2711 29.897 17.2255C29.897 18.2051 30.0878 19.0716 30.4695 19.8251C30.8766 20.5535 31.4236 21.1312 32.1105 21.5582C32.8229 21.9601 33.6371 22.161 34.5531 22.161ZM38.9801 26.343V21.4452L39.7816 16.9995L38.9801 12.6291V8.14569H43.9415V26.343H38.9801Z" fill="white"/>
<path d="M44.9415 23.8941L54.7116 11.3481H60.7416L50.9715 23.8941H44.9415ZM44.9415 26.7198V23.8941L48.9106 22.4248H60.5126V26.7198H44.9415ZM45.6285 12.8175V8.52245H60.7416V11.3481L56.7343 12.8175H45.6285Z" fill="white"/>
<path d="M70.0996 26.7198C68.4713 26.7198 67.021 26.3807 65.7489 25.7026C64.5022 25.0244 63.5226 24.0825 62.8102 22.8769C62.0978 21.6713 61.7416 20.2773 61.7416 18.6949V8.14569H66.7793V18.5819C66.7793 19.3354 66.9065 19.9884 67.161 20.541C67.4154 21.0684 67.797 21.4703 68.3059 21.7466C68.8148 22.0229 69.4127 22.161 70.0996 22.161C71.1428 22.161 71.957 21.8471 72.5422 21.2192C73.1273 20.5912 73.4199 19.7121 73.4199 18.5819V8.14569H78.4195V18.6949C78.4195 20.3024 78.0633 21.7089 77.3509 22.9146C76.6639 24.1202 75.6844 25.0621 74.4122 25.7402C73.1655 26.3933 71.728 26.7198 70.0996 26.7198Z" fill="white"/>
<path d="M91.8229 26.7198V16.2836C91.8229 15.2036 91.4795 14.3245 90.7925 13.6463C90.1055 12.9682 89.215 12.6291 88.121 12.6291C87.4086 12.6291 86.7725 12.7798 86.2128 13.0812C85.653 13.3826 85.2078 13.8096 84.877 14.3622C84.5717 14.9148 84.419 15.5552 84.419 16.2836L82.4726 15.3041C82.4726 13.8724 82.778 12.6291 83.3886 11.5742C84.0247 10.4941 84.8897 9.65272 85.9838 9.04991C87.1033 8.4471 88.3627 8.14569 89.7621 8.14569C91.1105 8.14569 92.3191 8.48477 93.3877 9.16293C94.4563 9.81598 95.2959 10.6825 95.9065 11.7626C96.5172 12.8175 96.8225 13.9603 96.8225 15.191V26.7198H91.8229ZM79.4195 26.7198V8.52245H84.419V26.7198H79.4195Z" fill="white"/>
<path d="M107.707 26.7198C105.85 26.7198 104.171 26.3054 102.669 25.4765C101.194 24.6225 100.011 23.4797 99.1201 22.048C98.255 20.5912 97.8225 18.9712 97.8225 17.1878C97.8225 15.4045 98.255 13.8096 99.1201 12.403C99.9851 10.9714 101.168 9.84109 102.669 9.01223C104.171 8.15825 105.837 7.73125 107.669 7.73125C109.552 7.73125 111.231 8.15825 112.707 9.01223C114.208 9.84109 115.391 10.9714 116.256 12.403C117.121 13.8096 117.554 15.4045 117.554 17.1878C117.554 18.9712 117.121 20.5912 116.256 22.048C115.391 23.4797 114.208 24.6225 112.707 25.4765C111.231 26.3054 109.564 26.7198 107.707 26.7198ZM107.669 22.1234C108.61 22.1234 109.437 21.9224 110.15 21.5206C110.887 21.0936 111.447 20.5159 111.829 19.7875C112.236 19.034 112.439 18.18 112.439 17.2255C112.439 16.2711 112.236 15.4297 111.829 14.7013C111.422 13.9729 110.862 13.4077 110.15 13.0059C109.437 12.5789 108.61 12.3654 107.669 12.3654C106.753 12.3654 105.939 12.5789 105.226 13.0059C104.514 13.4077 103.954 13.9729 103.547 14.7013C103.14 15.4297 102.937 16.2711 102.937 17.2255C102.937 18.18 103.14 19.034 103.547 19.7875C103.954 20.5159 104.514 21.0936 105.226 21.5206C105.939 21.9224 106.753 22.1234 107.669 22.1234Z" fill="white"/>
<path d="M126.683 26.7198L118.553 8.52245H124.049L129.888 23.5174H127.179L133.056 8.52245H138.361L130.27 26.7198H126.683Z" fill="white"/>
<path d="M144.628 26.7198V0.233795H149.742V26.7198H144.628ZM139.361 4.67952V0.233795H149.36V4.67952H139.361Z" fill="white"/>
<path d="M150.742 26.7198L161.542 0.233795H165.778L176.541 26.7198H171.007L162.687 4.98093H164.595L156.161 26.7198H150.742ZM156.466 21.7843V17.4893H170.892V21.7843H156.466Z" fill="white"/>
<path d="M177.541 26.7198V0.233795H182.731V26.7198H177.541Z" fill="white"/>
</svg>
