<svg width="42" height="41" viewBox="0 0 42 41" fill="none" xmlns="http://www.w3.org/2000/svg">
<path fill-rule="evenodd" clip-rule="evenodd" d="M41.7796 8.62302C41.7796 13.3854 37.8455 17.246 32.9926 17.246C24.4771 17.246 17.5739 24.0204 17.5739 32.377C17.5739 37.1393 13.6399 41 8.78697 41C3.93406 41 0 37.1393 0 32.377C0 29.2873 1.65588 26.5771 4.14423 25.0545C7.77674 22.8294 8.24446 18.454 4.14479 15.9458C1.65612 14.4233 0 11.7129 0 8.62302C0 3.86066 3.93406 0 8.78696 0C13.6399 0 17.5739 3.86066 17.5739 8.62302C17.5739 11.7129 15.9178 14.4233 13.4291 15.9458C10.4552 17.7652 9.88475 20.5673 11.1823 22.8183C11.4329 23.2532 11.9595 23.4418 12.4551 23.3232C19.1997 21.708 24.2056 15.7392 24.2056 8.62302C24.2056 3.86066 28.1397 0 32.9926 0C37.8455 0 41.7796 3.86066 41.7796 8.62302ZM33.1063 40.9446C37.9592 40.9446 41.8933 37.084 41.8933 32.3216C41.8933 27.5592 37.9592 23.6986 33.1063 23.6986C28.2534 23.6986 24.3193 27.5592 24.3193 32.3216C24.3193 37.084 28.2534 40.9446 33.1063 40.9446Z" fill="white"/>
</svg>
