<svg width="96" height="45" viewBox="0 0 96 45" fill="none" xmlns="http://www.w3.org/2000/svg">
<rect width="96" height="45" rx="6" fill="#3371F2"/>
<path d="M24.102 28H17.494V17.99H19.034V26.67H24.102V28ZM29.461 28.196C26.465 28.196 24.547 25.998 24.547 22.988C24.547 19.978 26.465 17.794 29.461 17.794C32.457 17.794 34.375 19.978 34.375 22.988C34.375 25.998 32.457 28.196 29.461 28.196ZM29.461 26.866C31.827 26.866 32.765 25.046 32.765 22.988C32.765 20.93 31.827 19.124 29.461 19.124C27.095 19.124 26.157 20.93 26.157 22.988C26.157 25.046 27.095 26.866 29.461 26.866ZM40.3308 28.196C37.4468 28.196 35.8228 26.012 35.8228 22.988C35.8228 19.978 37.6568 17.794 40.5128 17.794C43.1028 17.794 44.4748 19.18 44.7968 21.084H43.1868C42.9208 19.824 41.9828 19.124 40.4988 19.124C38.2868 19.124 37.4328 21.112 37.4328 22.988C37.4328 24.878 38.0768 26.866 40.4148 26.866C42.0668 26.866 43.3828 25.718 43.3968 24.052H40.4428V22.764H44.9648V28H43.9008L43.5228 26.614H43.4948C42.7948 27.636 41.8568 28.196 40.3308 28.196ZM54.8109 28.196C51.8149 28.196 49.8969 25.998 49.8969 22.988C49.8969 19.978 51.8149 17.794 54.8109 17.794C57.8069 17.794 59.7249 19.978 59.7249 22.988C59.7249 25.998 57.8069 28.196 54.8109 28.196ZM54.8109 26.866C57.1769 26.866 58.1149 25.046 58.1149 22.988C58.1149 20.93 57.1769 19.124 54.8109 19.124C52.4449 19.124 51.5069 20.93 51.5069 22.988C51.5069 25.046 52.4449 26.866 54.8109 26.866ZM65.4847 28.196C62.7407 28.196 61.5787 26.754 61.5787 24.598V17.99H63.1187V24.598C63.1187 26.152 63.9027 26.866 65.4847 26.866C67.0807 26.866 67.8507 26.152 67.8507 24.598V17.99H69.4047V24.598C69.4047 26.754 68.2427 28.196 65.4847 28.196ZM75.7524 28H74.1984V19.32H70.9644V17.99H78.9864V19.32H75.7524V28Z" fill="white"/>
</svg>
