<svg width="30" height="30" viewBox="0 0 30 30" fill="none" xmlns="http://www.w3.org/2000/svg">
<g clip-path="url(#clip0_118_4095)">
<path d="M29.9616 16.0703C29.9865 15.7167 30 15.3599 30 15C30 6.71572 23.2843 0 15 0C6.71572 0 0 6.71572 0 15C0 21.9005 4.65996 27.7119 11.0044 29.461L29.9616 16.0703Z" fill="#C30B15"/>
<path d="M29.9618 16.0705L18.4567 4.56543L6.97852 25.435L11.0047 29.4612C12.2769 29.812 13.6165 30.0002 15.0002 30.0002C22.9246 30.0002 29.4129 23.8552 29.9618 16.0705Z" fill="#85080E"/>
<path d="M16.3085 19.5654L14.9833 4.56543H6.97852V18.2611L16.3085 19.5654Z" fill="white"/>
<path d="M23.0211 18.2611V9.13064L19.7602 7.82629L18.4559 4.56543H14.9824L15.0033 19.5654L23.0211 18.2611Z" fill="#E8E6E6"/>
<path d="M18.457 9.13064V4.56543L23.0222 9.13064H18.457Z" fill="white"/>
<path d="M23.022 18.2607H6.97852V25.4347H23.022V18.2607Z" fill="#FC0F1A"/>
<path d="M12.0048 20.2959C12.7986 20.2959 13.2553 20.6861 13.2553 21.3778C13.2553 22.1051 12.7985 22.5263 12.0048 22.5263H11.4417V23.3999H10.6523V20.2959H12.0048ZM11.4417 21.9055H11.9649C12.3108 21.9055 12.5103 21.7326 12.5103 21.4044C12.5103 21.0807 12.3107 20.9167 11.9649 20.9167H11.4417V21.9055Z" fill="white"/>
<path d="M15.1141 20.2959C16.0896 20.2959 16.7637 20.9255 16.7637 21.8479C16.7637 22.7658 16.0807 23.3999 15.083 23.3999H13.7793V20.2959H15.1141ZM14.5687 22.7702H15.1318C15.6152 22.7702 15.961 22.3977 15.961 21.8523C15.961 21.3025 15.5974 20.9255 15.0963 20.9255H14.5686V22.7702H14.5687Z" fill="white"/>
<path d="M18.0803 20.9166V21.635H19.4727V22.2559H18.0803V23.3999H17.291V20.2959H19.5924V20.9167H18.0803V20.9166Z" fill="white"/>
</g>
<defs>
<clipPath id="clip0_118_4095">
<rect width="30" height="30" fill="white"/>
</clipPath>
</defs>
</svg>
