<svg width="226" height="19" viewBox="0 0 226 19" fill="none" xmlns="http://www.w3.org/2000/svg">
<path d="M2.62 15H0.42V0.699999H6.38C9.08 0.699999 11.06 1.96 11.06 4.96C11.06 7.96 9.08 9.2 6.38 9.2H2.62V15ZM2.62 7.3H6.28C7.94 7.3 8.78 6.56 8.78 4.96C8.78 3.34 7.94 2.6 6.28 2.6H2.62V7.3ZM16.9838 4.56C17.3438 4.56 17.6238 4.58 17.9238 4.62V6.5C17.6838 6.46 17.5038 6.44 17.2638 6.44C15.4838 6.44 14.2038 7.78 14.2038 9.72V15H12.2438V4.8H14.2038V6.74H14.2438C14.7838 5.46 15.6038 4.56 16.9838 4.56ZM23.1272 15.3C19.9472 15.3 18.0272 13.1 18.0272 9.9C18.0272 6.72 19.9472 4.48 23.1472 4.48C26.3072 4.48 28.2272 6.7 28.2272 9.88C28.2272 13.08 26.3072 15.3 23.1272 15.3ZM23.1472 13.68C25.2272 13.68 26.1872 12.02 26.1872 9.9C26.1872 7.76 25.2272 6.12 23.1472 6.12C21.0272 6.12 20.0672 7.76 20.0672 9.9C20.0672 12.02 21.0272 13.68 23.1472 13.68ZM34.1753 15.3C31.1353 15.3 29.1553 13.1 29.1553 9.9C29.1553 6.7 31.1353 4.5 34.1553 4.5C36.7753 4.5 38.5153 6.2 38.7553 8.5H36.7353C36.6353 7.44 36.0353 6.12 34.1753 6.12C31.9953 6.12 31.1953 7.98 31.1953 9.9C31.1953 11.82 31.9953 13.66 34.1753 13.66C36.0553 13.66 36.6353 12.38 36.7353 11.22H38.7553C38.6153 13.56 36.7953 15.3 34.1753 15.3ZM49.4803 9.68C49.4803 9.96 49.4803 10.26 49.4603 10.42H41.6203C41.6603 12.12 42.6603 13.7 44.6803 13.7C46.4803 13.7 47.1803 12.54 47.3603 11.86H49.3603C48.8203 13.82 47.3203 15.3 44.6403 15.3C41.4003 15.3 39.6003 13 39.6003 9.88C39.6003 6.68 41.5203 4.48 44.6403 4.48C47.7403 4.48 49.4803 6.52 49.4803 9.68ZM41.6203 8.88H47.4403C47.4403 7.28 46.3203 6.08 44.5803 6.08C42.9403 6.08 41.7403 7.2 41.6203 8.88ZM60.2959 9.68C60.2959 9.96 60.2959 10.26 60.2759 10.42H52.4359C52.4759 12.12 53.4759 13.7 55.4959 13.7C57.2959 13.7 57.9959 12.54 58.1759 11.86H60.1759C59.6359 13.82 58.1359 15.3 55.4559 15.3C52.2159 15.3 50.4159 13 50.4159 9.88C50.4159 6.68 52.3359 4.48 55.4559 4.48C58.5559 4.48 60.2959 6.52 60.2959 9.68ZM52.4359 8.88H58.2559C58.2559 7.28 57.1359 6.08 55.3959 6.08C53.7559 6.08 52.5559 7.2 52.4359 8.88ZM68.9916 6.04V0.699999H70.9516V15H68.9916V13.8H68.9516C68.3916 14.52 67.4116 15.28 65.8116 15.28C63.2116 15.28 61.2316 13.26 61.2316 9.9C61.2316 6.54 63.2116 4.5 65.8116 4.5C67.4116 4.5 68.3916 5.24 68.9516 6.04H68.9916ZM66.1316 13.66C67.8916 13.66 68.9716 12.2 68.9716 9.9C68.9716 7.58 67.8916 6.14 66.1316 6.14C64.2116 6.14 63.2716 7.9 63.2716 9.9C63.2716 11.9 64.2116 13.66 66.1316 13.66ZM80.6975 13.5C81.0375 13.5 81.1975 13.48 81.5375 13.42V15C81.0375 15.1 80.7175 15.12 80.2975 15.12C78.6175 15.12 77.5975 14.48 77.5975 12.12V6.42H76.1175V4.8H77.5975V1.52H79.5575V4.8H81.5175V6.42H79.5575V12.18C79.5575 13.26 79.8575 13.5 80.6975 13.5ZM87.2936 15.3C84.1136 15.3 82.1936 13.1 82.1936 9.9C82.1936 6.72 84.1136 4.48 87.3136 4.48C90.4736 4.48 92.3936 6.7 92.3936 9.88C92.3936 13.08 90.4736 15.3 87.2936 15.3ZM87.3136 13.68C89.3936 13.68 90.3536 12.02 90.3536 9.9C90.3536 7.76 89.3936 6.12 87.3136 6.12C85.1936 6.12 84.2336 7.76 84.2336 9.9C84.2336 12.02 85.1936 13.68 87.3136 13.68ZM100.361 15H98.1614V0.699999H104.121C106.821 0.699999 108.801 1.96 108.801 4.96C108.801 7.96 106.821 9.2 104.121 9.2H100.361V15ZM100.361 7.3H104.021C105.681 7.3 106.521 6.56 106.521 4.96C106.521 3.34 105.681 2.6 104.021 2.6H100.361V7.3ZM112.415 15.28C110.375 15.28 109.075 14.1 109.075 12.36C109.075 10.08 110.795 9.4 113.335 8.92C114.935 8.62 115.915 8.42 115.915 7.42C115.915 6.68 115.475 6.06 113.975 6.06C112.195 6.06 111.655 6.62 111.555 7.98H109.555C109.655 6.02 110.935 4.48 114.055 4.48C116.155 4.48 117.835 5.36 117.835 8V12.68C117.835 13.42 117.935 13.8 118.315 13.8C118.375 13.8 118.435 13.8 118.555 13.78V14.98C118.215 15.06 117.875 15.1 117.555 15.1C116.575 15.1 116.055 14.72 115.935 13.56H115.895C115.235 14.62 114.075 15.28 112.415 15.28ZM112.855 13.7C114.615 13.7 115.915 12.8 115.915 11.02V9.56C115.595 9.86 114.715 10.08 113.675 10.3C111.875 10.66 111.115 11.16 111.115 12.22C111.115 13.18 111.635 13.7 112.855 13.7ZM121.027 18.58C120.587 18.58 120.287 18.54 119.767 18.44V16.84C120.107 16.88 120.287 16.9 120.607 16.9C121.387 16.9 122.307 16.5 122.707 14.9L118.587 4.8H120.727L123.707 12.6H123.747L126.547 4.8H128.607L124.567 15.24C123.587 17.76 122.607 18.58 121.027 18.58ZM140.705 4.5C142.765 4.5 143.805 5.74 143.805 7.92V15H141.845V8.46C141.845 7.1 141.565 6.18 140.065 6.18C138.605 6.18 137.685 7.2 137.685 8.74V15H135.725V8.46C135.725 7.1 135.445 6.18 133.945 6.18C132.485 6.18 131.565 7.2 131.565 8.74V15H129.605V4.8H131.565V6.08H131.605C132.145 5.3 133.085 4.5 134.625 4.5C136.045 4.5 136.925 5.14 137.325 6.28H137.365C138.105 5.3 139.145 4.5 140.705 4.5ZM155.112 9.68C155.112 9.96 155.112 10.26 155.092 10.42H147.252C147.292 12.12 148.292 13.7 150.312 13.7C152.112 13.7 152.812 12.54 152.992 11.86H154.992C154.452 13.82 152.952 15.3 150.272 15.3C147.032 15.3 145.232 13 145.232 9.88C145.232 6.68 147.152 4.48 150.272 4.48C153.372 4.48 155.112 6.52 155.112 9.68ZM147.252 8.88H153.072C153.072 7.28 151.952 6.08 150.212 6.08C148.572 6.08 147.372 7.2 147.252 8.88ZM161.928 4.5C163.808 4.5 165.328 5.58 165.328 7.92V15H163.368V8.46C163.368 7.1 162.768 6.18 161.288 6.18C159.608 6.18 158.528 7.2 158.528 8.74V15H156.568V4.8H158.528V6.08H158.568C159.108 5.3 160.168 4.5 161.928 4.5ZM170.909 13.5C171.249 13.5 171.409 13.48 171.749 13.42V15C171.249 15.1 170.929 15.12 170.509 15.12C168.829 15.12 167.809 14.48 167.809 12.12V6.42H166.329V4.8H167.809V1.52H169.769V4.8H171.729V6.42H169.769V12.18C169.769 13.26 170.069 13.5 170.909 13.5ZM179.66 15H177.46V0.699999H183.42C186.12 0.699999 188.1 1.96 188.1 4.96C188.1 7.96 186.12 9.2 183.42 9.2H179.66V15ZM179.66 7.3H183.32C184.98 7.3 185.82 6.56 185.82 4.96C185.82 3.34 184.98 2.6 183.32 2.6H179.66V7.3ZM193.473 15.3C190.293 15.3 188.373 13.1 188.373 9.9C188.373 6.72 190.293 4.48 193.493 4.48C196.653 4.48 198.573 6.7 198.573 9.88C198.573 13.08 196.653 15.3 193.473 15.3ZM193.493 13.68C195.573 13.68 196.533 12.02 196.533 9.9C196.533 7.76 195.573 6.12 193.493 6.12C191.373 6.12 190.413 7.76 190.413 9.9C190.413 12.02 191.373 13.68 193.493 13.68ZM204.781 4.56C205.141 4.56 205.421 4.58 205.721 4.62V6.5C205.481 6.46 205.301 6.44 205.061 6.44C203.281 6.44 202.001 7.78 202.001 9.72V15H200.041V4.8H202.001V6.74H202.041C202.581 5.46 203.401 4.56 204.781 4.56ZM210.554 13.5C210.894 13.5 211.054 13.48 211.394 13.42V15C210.894 15.1 210.574 15.12 210.154 15.12C208.474 15.12 207.454 14.48 207.454 12.12V6.42H205.974V4.8H207.454V1.52H209.414V4.8H211.374V6.42H209.414V12.18C209.414 13.26 209.714 13.5 210.554 13.5ZM215.625 15.28C213.585 15.28 212.285 14.1 212.285 12.36C212.285 10.08 214.005 9.4 216.545 8.92C218.145 8.62 219.125 8.42 219.125 7.42C219.125 6.68 218.685 6.06 217.185 6.06C215.405 6.06 214.865 6.62 214.765 7.98H212.765C212.865 6.02 214.145 4.48 217.265 4.48C219.365 4.48 221.045 5.36 221.045 8V12.68C221.045 13.42 221.145 13.8 221.525 13.8C221.585 13.8 221.645 13.8 221.765 13.78V14.98C221.425 15.06 221.085 15.1 220.765 15.1C219.785 15.1 219.265 14.72 219.145 13.56H219.105C218.445 14.62 217.285 15.28 215.625 15.28ZM216.065 13.7C217.825 13.7 219.125 12.8 219.125 11.02V9.56C218.805 9.86 217.925 10.08 216.885 10.3C215.085 10.66 214.325 11.16 214.325 12.22C214.325 13.18 214.845 13.7 216.065 13.7ZM225.19 15H223.23V0.699999H225.19V15Z" fill="black"/>
</svg>
