<svg width="295" height="34" viewBox="0 0 295 34" fill="none" xmlns="http://www.w3.org/2000/svg">
<path d="M5.53606 10H4.51405V5.898L0.860055 -0.0100005H1.96605L5.01806 5.1H5.04605L8.11206 -0.0100005H9.20406L5.53606 5.898V10ZM11.7481 10.196C9.60612 10.196 8.31812 8.656 8.31812 6.444C8.31812 4.218 9.60612 2.678 11.7481 2.678C13.8901 2.678 15.1781 4.218 15.1781 6.444C15.1781 8.656 13.8901 10.196 11.7481 10.196ZM11.7481 9.398C13.4141 9.398 14.2261 8.082 14.2261 6.444C14.2261 4.792 13.4141 3.476 11.7481 3.476C10.0821 3.476 9.27012 4.792 9.27012 6.444C9.27012 8.082 10.0821 9.398 11.7481 9.398ZM21.2221 7.368V2.86H22.1321V10H21.2221V8.992H21.1941C20.7881 9.58 20.0181 10.168 18.7441 10.168C17.4701 10.168 16.4061 9.454 16.4061 7.872V2.86H17.3161V7.676C17.3161 8.586 17.7361 9.37 18.9681 9.37C20.3261 9.37 21.2221 8.418 21.2221 7.368ZM24.4755 3.308H23.7615L23.6495 -0.0100005H24.5875L24.4755 3.308ZM29.0687 2.692C29.3207 2.692 29.5167 2.706 29.6847 2.734V3.63C29.5447 3.602 29.3907 3.588 29.2507 3.588C27.9627 3.588 27.0107 4.624 27.0107 6.01V10H26.1007V2.86H27.0107V4.316H27.0387C27.4027 3.378 28.0607 2.692 29.0687 2.692ZM36.501 6.108C36.501 6.304 36.501 6.5 36.487 6.612H30.831C30.845 8.054 31.615 9.412 33.295 9.412C34.765 9.412 35.339 8.404 35.479 7.816H36.403C36.053 9.118 35.073 10.196 33.281 10.196C31.097 10.196 29.879 8.6 29.879 6.43C29.879 4.148 31.223 2.678 33.281 2.678C35.339 2.678 36.501 4.12 36.501 6.108ZM30.831 5.814H35.535C35.535 4.54 34.709 3.462 33.239 3.462C31.853 3.462 30.901 4.484 30.831 5.814ZM42.799 10.182C41.371 10.182 40.461 9.384 40.461 8.194C40.461 6.654 41.553 6.164 43.401 5.842C44.577 5.632 45.333 5.548 45.333 4.694C45.333 3.966 44.857 3.476 43.709 3.476C42.323 3.476 41.833 3.966 41.763 5.016H40.797C40.867 3.756 41.665 2.678 43.737 2.678C45.053 2.678 46.215 3.238 46.215 4.946V8.516C46.215 9.09 46.299 9.356 46.621 9.356C46.677 9.356 46.733 9.356 46.817 9.342V10C46.663 10.028 46.509 10.056 46.341 10.056C45.739 10.056 45.389 9.818 45.333 8.922H45.305C44.815 9.734 43.961 10.182 42.799 10.182ZM42.911 9.384C44.367 9.384 45.333 8.614 45.333 7.326V5.996C45.123 6.29 44.367 6.458 43.513 6.598C42.127 6.85 41.413 7.2 41.413 8.11C41.413 8.936 41.875 9.384 42.911 9.384ZM48.9404 10H48.0304V-0.0100005H48.9404V10ZM58.0344 2.692C59.3924 2.692 60.1344 3.504 60.1344 4.988V10H59.2244V5.184C59.2244 4.288 59.0144 3.49 57.8384 3.49C56.5784 3.49 55.8364 4.456 55.8364 5.492V10H54.9264V5.184C54.9264 4.288 54.7164 3.49 53.5264 3.49C52.2804 3.49 51.5244 4.456 51.5244 5.492V10H50.6144V2.86H51.5244V3.868H51.5524C51.9304 3.294 52.6024 2.692 53.7224 2.692C54.7304 2.692 55.3744 3.154 55.6404 4.008H55.6684C56.1304 3.294 56.9004 2.692 58.0344 2.692ZM64.795 10.196C62.653 10.196 61.365 8.656 61.365 6.444C61.365 4.218 62.653 2.678 64.795 2.678C66.937 2.678 68.225 4.218 68.225 6.444C68.225 8.656 66.937 10.196 64.795 10.196ZM64.795 9.398C66.461 9.398 67.273 8.082 67.273 6.444C67.273 4.792 66.461 3.476 64.795 3.476C63.129 3.476 62.317 4.792 62.317 6.444C62.317 8.082 63.129 9.398 64.795 9.398ZM72.1409 10.182C70.1389 10.182 69.0469 9.09 69.0049 7.662H69.9569C70.0129 8.642 70.6569 9.384 72.1549 9.384C73.5129 9.384 73.9749 8.754 73.9749 8.054C73.9749 7.004 72.9109 6.892 71.9169 6.654C70.6009 6.318 69.2709 5.996 69.2709 4.61C69.2709 3.448 70.1949 2.692 71.8049 2.692C73.6669 2.692 74.5349 3.686 74.6609 4.862H73.7089C73.5829 4.232 73.2049 3.49 71.8189 3.49C70.7969 3.49 70.2229 3.882 70.2229 4.554C70.2229 5.45 71.1889 5.576 72.2669 5.842C73.6109 6.164 74.9409 6.542 74.9409 8.026C74.9409 9.328 73.9049 10.182 72.1409 10.182ZM78.7881 2.86V3.658H77.3461V8.166C77.3461 9.048 77.5421 9.258 78.2421 9.258C78.4661 9.258 78.5781 9.244 78.7881 9.23V10C78.5081 10.042 78.3401 10.056 78.1161 10.056C77.0801 10.056 76.4361 9.706 76.4361 8.152V3.658H75.3861V2.86H76.4361V0.48H77.3461V2.86H78.7881ZM85.7744 2.86V3.658H84.3324V8.166C84.3324 9.048 84.5284 9.258 85.2284 9.258C85.4524 9.258 85.5644 9.244 85.7744 9.23V10C85.4944 10.042 85.3264 10.056 85.1024 10.056C84.0664 10.056 83.4224 9.706 83.4224 8.152V3.658H82.3724V2.86H83.4224V0.48H84.3324V2.86H85.7744ZM90.3423 2.692C91.6163 2.692 92.6803 3.406 92.6803 4.988V10H91.7703V5.184C91.7703 4.274 91.3503 3.49 90.1183 3.49C88.7603 3.49 87.8643 4.442 87.8643 5.492V10H86.9543V-0.0100005H87.8643V3.882H87.8923C88.2983 3.294 89.0683 2.692 90.3423 2.692ZM100.554 6.108C100.554 6.304 100.554 6.5 100.54 6.612H94.8837C94.8977 8.054 95.6677 9.412 97.3477 9.412C98.8177 9.412 99.3917 8.404 99.5317 7.816H100.456C100.106 9.118 99.1257 10.196 97.3337 10.196C95.1497 10.196 93.9317 8.6 93.9317 6.43C93.9317 4.148 95.2757 2.678 97.3337 2.678C99.3917 2.678 100.554 4.12 100.554 6.108ZM94.8837 5.814H99.5877C99.5877 4.54 98.7617 3.462 97.2917 3.462C95.9057 3.462 94.9537 4.484 94.8837 5.814ZM104.797 2.692C105.049 2.692 105.245 2.706 105.413 2.734V3.63C105.273 3.602 105.119 3.588 104.979 3.588C103.691 3.588 102.739 4.624 102.739 6.01V10H101.829V2.86H102.739V4.316H102.767C103.131 3.378 103.789 2.692 104.797 2.692ZM112.23 6.108C112.23 6.304 112.23 6.5 112.216 6.612H106.56C106.574 8.054 107.344 9.412 109.024 9.412C110.494 9.412 111.068 8.404 111.208 7.816H112.132C111.782 9.118 110.802 10.196 109.01 10.196C106.826 10.196 105.608 8.6 105.608 6.43C105.608 4.148 106.952 2.678 109.01 2.678C111.068 2.678 112.23 4.12 112.23 6.108ZM106.56 5.814H111.264C111.264 4.54 110.438 3.462 108.968 3.462C107.582 3.462 106.63 4.484 106.56 5.814ZM114.401 7.424H113.827L113.589 3.014V-0.0100005H114.639V3.014L114.401 7.424ZM114.709 10H113.533V8.824H114.709V10ZM121.337 10.182C119.237 10.182 118.523 8.698 118.523 7.102V6.78H119.545V7.102C119.545 8.376 119.937 9.286 121.337 9.286C122.751 9.286 123.157 8.376 123.157 7.102V-0.0100005H124.179V7.102C124.179 8.698 123.437 10.182 121.337 10.182ZM130.638 7.368V2.86H131.548V10H130.638V8.992H130.61C130.204 9.58 129.434 10.168 128.16 10.168C126.886 10.168 125.822 9.454 125.822 7.872V2.86H126.732V7.676C126.732 8.586 127.152 9.37 128.384 9.37C129.742 9.37 130.638 8.418 130.638 7.368ZM135.866 10.182C133.864 10.182 132.772 9.09 132.73 7.662H133.682C133.738 8.642 134.382 9.384 135.88 9.384C137.238 9.384 137.7 8.754 137.7 8.054C137.7 7.004 136.636 6.892 135.642 6.654C134.326 6.318 132.996 5.996 132.996 4.61C132.996 3.448 133.92 2.692 135.53 2.692C137.392 2.692 138.26 3.686 138.386 4.862H137.434C137.308 4.232 136.93 3.49 135.544 3.49C134.522 3.49 133.948 3.882 133.948 4.554C133.948 5.45 134.914 5.576 135.992 5.842C137.336 6.164 138.666 6.542 138.666 8.026C138.666 9.328 137.63 10.182 135.866 10.182ZM142.513 2.86V3.658H141.071V8.166C141.071 9.048 141.267 9.258 141.967 9.258C142.191 9.258 142.303 9.244 142.513 9.23V10C142.233 10.042 142.065 10.056 141.841 10.056C140.805 10.056 140.161 9.706 140.161 8.152V3.658H139.111V2.86H140.161V0.48H141.071V2.86H142.513ZM150.143 2.692C151.417 2.692 152.481 3.406 152.481 4.988V10H151.571V5.184C151.571 4.274 151.151 3.49 149.919 3.49C148.561 3.49 147.665 4.442 147.665 5.492V10H146.755V-0.0100005H147.665V3.882H147.693C148.099 3.294 148.869 2.692 150.143 2.692ZM160.355 6.108C160.355 6.304 160.355 6.5 160.341 6.612H154.685C154.699 8.054 155.469 9.412 157.149 9.412C158.619 9.412 159.193 8.404 159.333 7.816H160.257C159.907 9.118 158.927 10.196 157.135 10.196C154.951 10.196 153.733 8.6 153.733 6.43C153.733 4.148 155.077 2.678 157.135 2.678C159.193 2.678 160.355 4.12 160.355 6.108ZM154.685 5.814H159.389C159.389 4.54 158.563 3.462 157.093 3.462C155.707 3.462 154.755 4.484 154.685 5.814ZM163.59 10.182C162.162 10.182 161.252 9.384 161.252 8.194C161.252 6.654 162.344 6.164 164.192 5.842C165.368 5.632 166.124 5.548 166.124 4.694C166.124 3.966 165.648 3.476 164.5 3.476C163.114 3.476 162.624 3.966 162.554 5.016H161.588C161.658 3.756 162.456 2.678 164.528 2.678C165.844 2.678 167.006 3.238 167.006 4.946V8.516C167.006 9.09 167.09 9.356 167.412 9.356C167.468 9.356 167.524 9.356 167.608 9.342V10C167.454 10.028 167.3 10.056 167.132 10.056C166.53 10.056 166.18 9.818 166.124 8.922H166.096C165.606 9.734 164.752 10.182 163.59 10.182ZM163.702 9.384C165.158 9.384 166.124 8.614 166.124 7.326V5.996C165.914 6.29 165.158 6.458 164.304 6.598C162.918 6.85 162.204 7.2 162.204 8.11C162.204 8.936 162.666 9.384 163.702 9.384ZM173.947 4.064V-0.0100005H174.857V10H173.947V8.838H173.919C173.513 9.538 172.757 10.182 171.511 10.182C169.775 10.182 168.375 8.782 168.375 6.43C168.375 4.092 169.775 2.692 171.511 2.692C172.757 2.692 173.499 3.308 173.919 4.064H173.947ZM171.623 9.384C172.995 9.384 173.947 8.236 173.947 6.43C173.947 4.638 172.995 3.49 171.623 3.49C170.139 3.49 169.327 4.834 169.327 6.43C169.327 8.04 170.139 9.384 171.623 9.384ZM182.647 10.196C180.505 10.196 179.217 8.656 179.217 6.444C179.217 4.218 180.505 2.678 182.647 2.678C184.789 2.678 186.077 4.218 186.077 6.444C186.077 8.656 184.789 10.196 182.647 10.196ZM182.647 9.398C184.313 9.398 185.125 8.082 185.125 6.444C185.125 4.792 184.313 3.476 182.647 3.476C180.981 3.476 180.169 4.792 180.169 6.444C180.169 8.082 180.981 9.398 182.647 9.398ZM190.109 10H189.073L186.455 2.86H187.463L189.605 9.076H189.619L191.747 2.86H192.727L190.109 10ZM199.743 6.108C199.743 6.304 199.743 6.5 199.729 6.612H194.073C194.087 8.054 194.857 9.412 196.537 9.412C198.007 9.412 198.581 8.404 198.721 7.816H199.645C199.295 9.118 198.315 10.196 196.523 10.196C194.339 10.196 193.121 8.6 193.121 6.43C193.121 4.148 194.465 2.678 196.523 2.678C198.581 2.678 199.743 4.12 199.743 6.108ZM194.073 5.814H198.777C198.777 4.54 197.951 3.462 196.481 3.462C195.095 3.462 194.143 4.484 194.073 5.814ZM203.987 2.692C204.239 2.692 204.435 2.706 204.603 2.734V3.63C204.463 3.602 204.309 3.588 204.169 3.588C202.881 3.588 201.929 4.624 201.929 6.01V10H201.019V2.86H201.929V4.316H201.957C202.321 3.378 202.979 2.692 203.987 2.692ZM211.05 2.86V3.658H209.608V8.166C209.608 9.048 209.804 9.258 210.504 9.258C210.728 9.258 210.84 9.244 211.05 9.23V10C210.77 10.042 210.602 10.056 210.378 10.056C209.342 10.056 208.698 9.706 208.698 8.152V3.658H207.648V2.86H208.698V0.48H209.608V2.86H211.05ZM215.104 10.196C212.962 10.196 211.674 8.656 211.674 6.444C211.674 4.218 212.962 2.678 215.104 2.678C217.246 2.678 218.534 4.218 218.534 6.444C218.534 8.656 217.246 10.196 215.104 10.196ZM215.104 9.398C216.77 9.398 217.582 8.082 217.582 6.444C217.582 4.792 216.77 3.476 215.104 3.476C213.438 3.476 212.626 4.792 212.626 6.444C212.626 8.082 213.438 9.398 215.104 9.398ZM225.624 2.86V3.658H224.182V8.166C224.182 9.048 224.378 9.258 225.078 9.258C225.302 9.258 225.414 9.244 225.624 9.23V10C225.344 10.042 225.176 10.056 224.952 10.056C223.916 10.056 223.272 9.706 223.272 8.152V3.658H222.222V2.86H223.272V0.48H224.182V2.86H225.624ZM230.192 2.692C231.466 2.692 232.53 3.406 232.53 4.988V10H231.62V5.184C231.62 4.274 231.2 3.49 229.968 3.49C228.61 3.49 227.714 4.442 227.714 5.492V10H226.804V-0.0100005H227.714V3.882H227.742C228.148 3.294 228.918 2.692 230.192 2.692ZM240.403 6.108C240.403 6.304 240.403 6.5 240.389 6.612H234.733C234.747 8.054 235.517 9.412 237.197 9.412C238.667 9.412 239.241 8.404 239.381 7.816H240.305C239.955 9.118 238.975 10.196 237.183 10.196C234.999 10.196 233.781 8.6 233.781 6.43C233.781 4.148 235.125 2.678 237.183 2.678C239.241 2.678 240.403 4.12 240.403 6.108ZM234.733 5.814H239.437C239.437 4.54 238.611 3.462 237.141 3.462C235.755 3.462 234.803 4.484 234.733 5.814ZM248.087 2.678C249.837 2.678 251.237 4.078 251.237 6.43C251.237 8.768 249.837 10.168 248.087 10.168C246.841 10.168 246.099 9.552 245.679 8.796H245.651V12.478H244.741V2.86H245.651V4.008H245.679C246.099 3.322 246.841 2.678 248.087 2.678ZM247.989 9.37C249.473 9.37 250.285 8.026 250.285 6.43C250.285 4.82 249.473 3.476 247.989 3.476C246.617 3.476 245.651 4.624 245.651 6.43C245.651 8.222 246.617 9.37 247.989 9.37ZM254.494 10.182C253.066 10.182 252.156 9.384 252.156 8.194C252.156 6.654 253.248 6.164 255.096 5.842C256.272 5.632 257.028 5.548 257.028 4.694C257.028 3.966 256.552 3.476 255.404 3.476C254.018 3.476 253.528 3.966 253.458 5.016H252.492C252.562 3.756 253.36 2.678 255.432 2.678C256.748 2.678 257.91 3.238 257.91 4.946V8.516C257.91 9.09 257.994 9.356 258.316 9.356C258.372 9.356 258.428 9.356 258.512 9.342V10C258.358 10.028 258.204 10.056 258.036 10.056C257.434 10.056 257.084 9.818 257.028 8.922H257C256.51 9.734 255.656 10.182 254.494 10.182ZM254.606 9.384C256.062 9.384 257.028 8.614 257.028 7.326V5.996C256.818 6.29 256.062 6.458 255.208 6.598C253.822 6.85 253.108 7.2 253.108 8.11C253.108 8.936 253.57 9.384 254.606 9.384ZM260.151 12.506C259.927 12.506 259.759 12.492 259.465 12.45V11.666C259.675 11.694 259.787 11.708 260.011 11.708C260.683 11.708 261.229 11.274 261.621 9.958L258.737 2.86H259.745L262.069 8.81H262.097L264.309 2.86H265.289L262.433 10.21C261.733 11.988 261.103 12.506 260.151 12.506ZM273.681 2.692C275.039 2.692 275.781 3.504 275.781 4.988V10H274.871V5.184C274.871 4.288 274.661 3.49 273.485 3.49C272.225 3.49 271.483 4.456 271.483 5.492V10H270.573V5.184C270.573 4.288 270.363 3.49 269.173 3.49C267.927 3.49 267.171 4.456 267.171 5.492V10H266.261V2.86H267.171V3.868H267.199C267.577 3.294 268.249 2.692 269.369 2.692C270.377 2.692 271.021 3.154 271.287 4.008H271.315C271.777 3.294 272.547 2.692 273.681 2.692ZM283.647 6.108C283.647 6.304 283.647 6.5 283.633 6.612H277.977C277.991 8.054 278.761 9.412 280.441 9.412C281.911 9.412 282.485 8.404 282.625 7.816H283.549C283.199 9.118 282.219 10.196 280.427 10.196C278.243 10.196 277.025 8.6 277.025 6.43C277.025 4.148 278.369 2.678 280.427 2.678C282.485 2.678 283.647 4.12 283.647 6.108ZM277.977 5.814H282.681C282.681 4.54 281.855 3.462 280.385 3.462C278.999 3.462 278.047 4.484 277.977 5.814ZM288.311 2.692C289.585 2.692 290.649 3.406 290.649 4.988V10H289.739V5.184C289.739 4.274 289.319 3.49 288.087 3.49C286.729 3.49 285.833 4.442 285.833 5.492V10H284.923V2.86H285.833V3.882H285.861C286.267 3.294 287.037 2.692 288.311 2.692ZM294.954 2.86V3.658H293.512V8.166C293.512 9.048 293.708 9.258 294.408 9.258C294.632 9.258 294.744 9.244 294.954 9.23V10C294.674 10.042 294.506 10.056 294.282 10.056C293.246 10.056 292.602 9.706 292.602 8.152V3.658H291.552V2.86H292.602V0.48H293.512V2.86H294.954ZM101.108 23.678C102.858 23.678 104.258 25.078 104.258 27.43C104.258 29.768 102.858 31.168 101.108 31.168C99.8619 31.168 99.1199 30.552 98.6999 29.796H98.6719V33.478H97.7619V23.86H98.6719V25.008H98.6999C99.1199 24.322 99.8619 23.678 101.108 23.678ZM101.01 30.37C102.494 30.37 103.306 29.026 103.306 27.43C103.306 25.82 102.494 24.476 101.01 24.476C99.6379 24.476 98.6719 25.624 98.6719 27.43C98.6719 29.222 99.6379 30.37 101.01 30.37ZM108.593 31.196C106.451 31.196 105.163 29.656 105.163 27.444C105.163 25.218 106.451 23.678 108.593 23.678C110.735 23.678 112.023 25.218 112.023 27.444C112.023 29.656 110.735 31.196 108.593 31.196ZM108.593 30.398C110.259 30.398 111.071 29.082 111.071 27.444C111.071 25.792 110.259 24.476 108.593 24.476C106.927 24.476 106.115 25.792 106.115 27.444C106.115 29.082 106.927 30.398 108.593 30.398ZM116.275 23.692C116.527 23.692 116.723 23.706 116.891 23.734V24.63C116.751 24.602 116.597 24.588 116.457 24.588C115.169 24.588 114.217 25.624 114.217 27.01V31H113.307V23.86H114.217V25.316H114.245C114.609 24.378 115.267 23.692 116.275 23.692ZM120.604 23.86V24.658H119.162V29.166C119.162 30.048 119.358 30.258 120.058 30.258C120.282 30.258 120.394 30.244 120.604 30.23V31C120.324 31.042 120.156 31.056 119.932 31.056C118.896 31.056 118.252 30.706 118.252 29.152V24.658H117.202V23.86H118.252V21.48H119.162V23.86H120.604ZM123.743 31.182C122.315 31.182 121.405 30.384 121.405 29.194C121.405 27.654 122.497 27.164 124.345 26.842C125.521 26.632 126.277 26.548 126.277 25.694C126.277 24.966 125.801 24.476 124.653 24.476C123.267 24.476 122.777 24.966 122.707 26.016H121.741C121.811 24.756 122.609 23.678 124.681 23.678C125.997 23.678 127.159 24.238 127.159 25.946V29.516C127.159 30.09 127.243 30.356 127.565 30.356C127.621 30.356 127.677 30.356 127.761 30.342V31C127.607 31.028 127.453 31.056 127.285 31.056C126.683 31.056 126.333 30.818 126.277 29.922H126.249C125.759 30.734 124.905 31.182 123.743 31.182ZM123.855 30.384C125.311 30.384 126.277 29.614 126.277 28.326V26.996C126.067 27.29 125.311 27.458 124.457 27.598C123.071 27.85 122.357 28.2 122.357 29.11C122.357 29.936 122.819 30.384 123.855 30.384ZM129.885 31H128.975V20.99H129.885V31ZM137.365 23.86V24.658H135.923V29.166C135.923 30.048 136.119 30.258 136.819 30.258C137.043 30.258 137.155 30.244 137.365 30.23V31C137.085 31.042 136.917 31.056 136.693 31.056C135.657 31.056 135.013 30.706 135.013 29.152V24.658H133.963V23.86H135.013V21.48H135.923V23.86H137.365ZM141.419 31.196C139.277 31.196 137.989 29.656 137.989 27.444C137.989 25.218 139.277 23.678 141.419 23.678C143.561 23.678 144.849 25.218 144.849 27.444C144.849 29.656 143.561 31.196 141.419 31.196ZM141.419 30.398C143.085 30.398 143.897 29.082 143.897 27.444C143.897 25.792 143.085 24.476 141.419 24.476C139.753 24.476 138.941 25.792 138.941 27.444C138.941 29.082 139.753 30.398 141.419 30.398ZM149.629 23.86V22.81C149.629 21.256 150.245 20.906 151.267 20.906C151.463 20.906 151.631 20.92 151.953 20.962V21.732C151.701 21.718 151.589 21.704 151.393 21.704C150.707 21.704 150.539 21.914 150.539 22.796V23.86H151.953V24.658H150.539V31H149.629V24.658H148.621V23.86H149.629ZM152.793 22.432V21.256H153.969V22.432H152.793ZM153.829 31H152.919V23.86H153.829V31ZM158.9 23.692C160.174 23.692 161.238 24.406 161.238 25.988V31H160.328V26.184C160.328 25.274 159.908 24.49 158.676 24.49C157.318 24.49 156.422 25.442 156.422 26.492V31H155.512V23.86H156.422V24.882H156.45C156.856 24.294 157.626 23.692 158.9 23.692ZM163.903 22.432H162.727V21.256H163.903V22.432ZM163.777 31H162.867V23.86H163.777V31ZM168.083 31.182C166.081 31.182 164.989 30.09 164.947 28.662H165.899C165.955 29.642 166.599 30.384 168.097 30.384C169.455 30.384 169.917 29.754 169.917 29.054C169.917 28.004 168.853 27.892 167.859 27.654C166.543 27.318 165.213 26.996 165.213 25.61C165.213 24.448 166.137 23.692 167.747 23.692C169.609 23.692 170.477 24.686 170.603 25.862H169.651C169.525 25.232 169.147 24.49 167.761 24.49C166.739 24.49 166.165 24.882 166.165 25.554C166.165 26.45 167.131 26.576 168.209 26.842C169.553 27.164 170.883 27.542 170.883 29.026C170.883 30.328 169.847 31.182 168.083 31.182ZM175.443 23.692C176.717 23.692 177.781 24.406 177.781 25.988V31H176.871V26.184C176.871 25.274 176.451 24.49 175.219 24.49C173.861 24.49 172.965 25.442 172.965 26.492V31H172.055V20.99H172.965V24.882H172.993C173.399 24.294 174.169 23.692 175.443 23.692ZM187.233 28.368V23.86H188.143V31H187.233V29.992H187.205C186.799 30.58 186.029 31.168 184.755 31.168C183.481 31.168 182.417 30.454 182.417 28.872V23.86H183.327V28.676C183.327 29.586 183.747 30.37 184.979 30.37C186.337 30.37 187.233 29.418 187.233 28.368ZM193.174 23.678C194.924 23.678 196.324 25.078 196.324 27.43C196.324 29.768 194.924 31.168 193.174 31.168C191.928 31.168 191.186 30.552 190.766 29.796H190.738V33.478H189.828V23.86H190.738V25.008H190.766C191.186 24.322 191.928 23.678 193.174 23.678ZM193.076 30.37C194.56 30.37 195.372 29.026 195.372 27.43C195.372 25.82 194.56 24.476 193.076 24.476C191.704 24.476 190.738 25.624 190.738 27.43C190.738 29.222 191.704 30.37 193.076 30.37ZM198.383 31H197.207V29.824H198.383V31Z" fill="#534B68"/>
</svg>
