<svg width="387" height="387" viewBox="0 0 387 387" fill="none" xmlns="http://www.w3.org/2000/svg">
<path d="M248 194C248 223.823 223.823 248 194 248C164.177 248 140 223.823 140 194C140 164.177 164.177 140 194 140C223.823 140 248 164.177 248 194ZM145.94 194C145.94 220.543 167.457 242.06 194 242.06C220.543 242.06 242.06 220.543 242.06 194C242.06 167.457 220.543 145.94 194 145.94C167.457 145.94 145.94 167.457 145.94 194Z" fill="#E2EBFD"/>
<path d="M245.03 194C246.67 194 248.009 192.669 247.918 191.031C247.506 183.534 245.533 176.194 242.114 169.485C238.246 161.892 232.635 155.322 225.74 150.313C218.846 145.304 210.864 141.998 202.447 140.665C194.031 139.332 185.418 140.01 177.313 142.643C169.208 145.276 161.842 149.79 155.816 155.816C149.79 161.842 145.276 169.208 142.643 177.313C140.01 185.418 139.332 194.031 140.665 202.447C141.843 209.885 144.561 216.983 148.634 223.291C149.524 224.669 151.389 224.959 152.716 223.995C154.043 223.031 154.329 221.178 153.448 219.794C149.921 214.249 147.563 208.03 146.532 201.518C145.345 194.027 145.949 186.362 148.292 179.149C150.636 171.935 154.653 165.379 160.016 160.016C165.379 154.653 171.935 150.636 179.149 148.292C186.362 145.949 194.027 145.345 201.518 146.532C209.009 147.718 216.113 150.661 222.249 155.119C228.385 159.577 233.379 165.423 236.822 172.181C239.815 178.055 241.562 184.473 241.968 191.032C242.07 192.669 243.39 194 245.03 194Z" fill="#3371F2"/>
<g filter="url(#filter0_d_447_11946)">
<path fill-rule="evenodd" clip-rule="evenodd" d="M213.889 181.623C213.889 186.385 210.039 190.246 205.289 190.246C196.955 190.246 190.199 197.02 190.199 205.377C190.199 210.139 186.349 214 181.6 214C176.85 214 173 210.139 173 205.377C173 202.287 174.621 199.577 177.056 198.055C180.611 195.829 181.069 191.454 177.056 188.946C174.621 187.423 173 184.713 173 181.623C173 176.861 176.85 173 181.6 173C186.349 173 190.199 176.861 190.199 181.623C190.199 184.713 188.578 187.423 186.143 188.946C183.232 190.765 182.674 193.567 183.944 195.818C184.189 196.253 184.705 196.442 185.189 196.323C191.79 194.708 196.689 188.739 196.689 181.623C196.689 176.861 200.54 173 205.289 173C210.039 173 213.889 176.861 213.889 181.623ZM205.401 213.945C210.15 213.945 214 210.084 214 205.322C214 200.559 210.15 196.699 205.401 196.699C200.651 196.699 196.801 200.559 196.801 205.322C196.801 210.084 200.651 213.945 205.401 213.945Z" fill="url(#paint0_linear_447_11946)"/>
</g>
<defs>
<filter id="filter0_d_447_11946" x="0.235901" y="0.235901" width="386.528" height="386.528" filterUnits="userSpaceOnUse" color-interpolation-filters="sRGB">
<feFlood flood-opacity="0" result="BackgroundImageFix"/>
<feColorMatrix in="SourceAlpha" type="matrix" values="0 0 0 0 0 0 0 0 0 0 0 0 0 0 0 0 0 0 127 0" result="hardAlpha"/>
<feOffset/>
<feGaussianBlur stdDeviation="86.382"/>
<feComposite in2="hardAlpha" operator="out"/>
<feColorMatrix type="matrix" values="0 0 0 0 1 0 0 0 0 1 0 0 0 0 1 0 0 0 0.4 0"/>
<feBlend mode="normal" in2="BackgroundImageFix" result="effect1_dropShadow_447_11946"/>
<feBlend mode="normal" in="SourceGraphic" in2="effect1_dropShadow_447_11946" result="shape"/>
</filter>
<linearGradient id="paint0_linear_447_11946" x1="185.328" y1="187.267" x2="195.993" y2="241.98" gradientUnits="userSpaceOnUse">
<stop stop-color="#3371F2"/>
<stop offset="1" stop-color="#2F0486"/>
</linearGradient>
</defs>
</svg>
