<svg width="16" height="16" viewBox="0 0 16 16" fill="none" xmlns="http://www.w3.org/2000/svg">
<path d="M11.8469 13.1105C13.3094 11.9667 14.25 10.1855 14.25 8.18546C14.25 4.73389 11.4609 1.94171 8.00937 1.93702C4.55312 1.93233 1.75 4.73077 1.75 8.18546C1.75 10.1417 2.64844 11.887 4.05625 13.0323C4.11094 13.0761 4.19062 13.0667 4.23438 13.012L4.85 12.223C4.89219 12.1698 4.88281 12.0933 4.83125 12.0495C4.70469 11.9464 4.58281 11.8355 4.46562 11.7183C4.00878 11.263 3.64474 10.7233 3.39375 10.1292C3.13125 9.51514 3 8.86046 3 8.18546C3 7.51046 3.13125 6.85577 3.39219 6.24014C3.64375 5.64483 4.00469 5.11046 4.46406 4.65108C4.92344 4.19171 5.45781 3.83077 6.05312 3.57921C6.67031 3.31827 7.325 3.18702 8 3.18702C8.675 3.18702 9.32969 3.31827 9.94531 3.57921C10.5406 3.83077 11.075 4.19171 11.5344 4.65108C11.9938 5.11046 12.3547 5.64483 12.6062 6.24014C12.8672 6.85577 12.9984 7.51046 12.9984 8.18546C12.9984 8.86046 12.8672 9.51514 12.6062 10.1308C12.3553 10.7249 11.9912 11.2646 11.5344 11.7198C11.3891 11.8651 11.2359 12.0011 11.0766 12.1261L10.4406 11.312C10.4262 11.2934 10.4069 11.2792 10.3848 11.2711C10.3627 11.263 10.3388 11.2613 10.3157 11.2662C10.2927 11.2711 10.2716 11.2824 10.2547 11.2988C10.2378 11.3152 10.2259 11.336 10.2203 11.3589L9.60156 13.8933C9.58281 13.9714 9.64219 14.048 9.72188 14.048L12.3313 14.0605C12.4359 14.0605 12.4953 13.9401 12.4297 13.8589L11.8469 13.1105Z" fill="black"/>
</svg>
