<svg width="128" height="128" viewBox="0 0 128 128" fill="none" xmlns="http://www.w3.org/2000/svg">
<g filter="url(#filter0_d_447_12893)">
<g clip-path="url(#clip0_447_12893)">
<rect x="4" y="4" width="120" height="120" rx="16" fill="url(#paint0_linear_447_12893)"/>
<path d="M69.25 40.0469C69.25 38.6545 68.6969 37.3191 67.7123 36.3346C66.7277 35.35 65.3924 34.7969 64 34.7969C62.6076 34.7969 61.2723 35.35 60.2877 36.3346C59.3031 37.3191 58.75 38.6545 58.75 40.0469C58.75 41.4393 59.3031 42.7746 60.2877 43.7592C61.2723 44.7438 62.6076 45.2969 64 45.2969C65.3924 45.2969 66.7277 44.7438 67.7123 43.7592C68.6969 42.7746 69.25 41.4393 69.25 40.0469ZM66.625 53.8281H61.375C61.0141 53.8281 60.7188 54.1234 60.7188 54.4844L60.7188 92.5469C60.7188 92.9078 61.0141 93.2031 61.375 93.2031H66.625C66.9859 93.2031 67.2812 92.9078 67.2812 92.5469V54.4844C67.2812 54.1234 66.9859 53.8281 66.625 53.8281Z" fill="white"/>
<path fill-rule="evenodd" clip-rule="evenodd" d="M164.452 8.38095C164.452 30.6827 145.483 48.7619 122.083 48.7619C81.0231 48.7619 47.7376 80.4857 47.7376 119.619C47.7376 141.921 28.7685 160 5.36881 160C-18.0308 160 -37 141.921 -37 119.619C-37 105.15 -29.0157 92.4588 -17.0175 85.3285C0.497726 74.9086 2.75297 54.4186 -17.0147 42.6731C-29.0146 35.5431 -37 22.8508 -37 8.38095C-37 -13.9208 -18.0308 -32 5.36878 -32C28.7684 -32 47.7376 -13.9208 47.7376 8.38095C47.7376 22.8508 39.7522 35.5431 27.7523 42.6731C13.4128 51.1932 10.6621 64.3151 16.9184 74.8565C18.1271 76.893 20.6661 77.7765 23.0555 77.2207C55.5766 69.6571 79.7141 41.7056 79.7141 8.38095C79.7141 -13.9208 98.6833 -32 122.083 -32C145.483 -32 164.452 -13.9208 164.452 8.38095ZM122.631 159.741C146.031 159.741 165 141.661 165 119.36C165 97.0579 146.031 78.9788 122.631 78.9788C99.2316 78.9788 80.2624 97.0579 80.2624 119.36C80.2624 141.661 99.2316 159.741 122.631 159.741Z" fill="white" fill-opacity="0.05"/>
</g>
</g>
<defs>
<filter id="filter0_d_447_12893" x="0" y="0" width="128" height="128" filterUnits="userSpaceOnUse" color-interpolation-filters="sRGB">
<feFlood flood-opacity="0" result="BackgroundImageFix"/>
<feColorMatrix in="SourceAlpha" type="matrix" values="0 0 0 0 0 0 0 0 0 0 0 0 0 0 0 0 0 0 127 0" result="hardAlpha"/>
<feOffset/>
<feGaussianBlur stdDeviation="2"/>
<feComposite in2="hardAlpha" operator="out"/>
<feColorMatrix type="matrix" values="0 0 0 0 0 0 0 0 0 0 0 0 0 0 0 0 0 0 0.1 0"/>
<feBlend mode="normal" in2="BackgroundImageFix" result="effect1_dropShadow_447_12893"/>
<feBlend mode="normal" in="SourceGraphic" in2="effect1_dropShadow_447_12893" result="shape"/>
</filter>
<linearGradient id="paint0_linear_447_12893" x1="60.5588" y1="273.268" x2="75.3582" y2="-186.499" gradientUnits="userSpaceOnUse">
<stop stop-color="#7AA5FF"/>
<stop offset="0.0001" stop-color="#3371F2"/>
<stop offset="1" stop-color="#0F1522"/>
</linearGradient>
<clipPath id="clip0_447_12893">
<rect x="4" y="4" width="120" height="120" rx="16" fill="white"/>
</clipPath>
</defs>
</svg>
