<svg width="30" height="29" viewBox="0 0 30 29" fill="none" xmlns="http://www.w3.org/2000/svg">
<path d="M19.8332 15.7083H10.1665C9.20509 15.7083 8.28306 15.3264 7.60324 14.6466C6.92342 13.9668 6.5415 13.0447 6.5415 12.0833V7.25C6.5415 6.28859 6.92342 5.36656 7.60324 4.68674C8.28306 4.00692 9.20509 3.625 10.1665 3.625H19.8332C20.7946 3.625 21.7166 4.00692 22.3964 4.68674C23.0763 5.36656 23.4582 6.28859 23.4582 7.25V12.0833C23.4582 13.0447 23.0763 13.9668 22.3964 14.6466C21.7166 15.3264 20.7946 15.7083 19.8332 15.7083ZM10.1665 6.04167C9.84603 6.04167 9.53869 6.16897 9.31208 6.39558C9.08548 6.62219 8.95817 6.92953 8.95817 7.25V12.0833C8.95817 12.4038 9.08548 12.7111 9.31208 12.9378C9.53869 13.1644 9.84603 13.2917 10.1665 13.2917H19.8332C20.1536 13.2917 20.461 13.1644 20.6876 12.9378C20.9142 12.7111 21.0415 12.4038 21.0415 12.0833V7.25C21.0415 6.92953 20.9142 6.62219 20.6876 6.39558C20.461 6.16897 20.1536 6.04167 19.8332 6.04167H10.1665Z" fill="#3371F2"/>
<path d="M12.5832 10.875C12.2633 10.8705 11.9569 10.7454 11.7253 10.5246C11.5297 10.3441 11.3991 10.104 11.354 9.84162C11.3088 9.57927 11.3515 9.30935 11.4755 9.07378C11.5995 8.83821 11.7978 8.65017 12.0396 8.53888C12.2814 8.42759 12.5532 8.39928 12.8128 8.45833C12.8929 8.46953 12.9705 8.49404 13.0424 8.53083C13.1166 8.55496 13.1861 8.59176 13.2478 8.63958L13.4412 8.78458C13.6202 8.95207 13.7441 9.17008 13.7964 9.40966C13.8486 9.64923 13.8267 9.89903 13.7336 10.1259C13.6405 10.3527 13.4806 10.5459 13.2752 10.6797C13.0697 10.8135 12.8284 10.8816 12.5832 10.875Z" fill="#3371F2"/>
<path d="M17.4165 10.8752C17.1765 10.8766 16.9415 10.8065 16.7415 10.6738C16.5415 10.5412 16.3856 10.3519 16.2935 10.1303C16.2015 9.9086 16.1776 9.66455 16.2248 9.42923C16.272 9.19391 16.3882 8.97798 16.5586 8.80897C16.6713 8.69631 16.805 8.60694 16.9522 8.54597C17.0994 8.485 17.2572 8.45361 17.4165 8.45361C17.5759 8.45361 17.7336 8.485 17.8808 8.54597C18.028 8.60694 18.1618 8.69631 18.2744 8.80897C18.3871 8.92164 18.4765 9.05539 18.5375 9.20259C18.5984 9.34979 18.6298 9.50756 18.6298 9.66689C18.6298 9.82622 18.5984 9.98399 18.5375 10.1312C18.4765 10.2784 18.3871 10.4121 18.2744 10.5248C18.215 10.5795 18.1502 10.6281 18.0811 10.6698C18.0194 10.7176 17.9499 10.7544 17.8757 10.7786C17.8037 10.8154 17.7261 10.8399 17.6461 10.8511L17.4165 10.8752Z" fill="#3371F2"/>
<path d="M14.9998 4.8335C14.6794 4.8335 14.372 4.70619 14.1454 4.47958C13.9188 4.25298 13.7915 3.94563 13.7915 3.62516V2.41683C13.7915 2.09636 13.9188 1.78902 14.1454 1.56241C14.372 1.3358 14.6794 1.2085 14.9998 1.2085C15.3203 1.2085 15.6277 1.3358 15.8543 1.56241C16.0809 1.78902 16.2082 2.09636 16.2082 2.41683V3.62516C16.2082 3.94563 16.0809 4.25298 15.8543 4.47958C15.6277 4.70619 15.3203 4.8335 14.9998 4.8335Z" fill="#3371F2"/>
<path d="M11.3748 26.5832C11.0544 26.5832 10.747 26.4559 10.5204 26.2293C10.2938 26.0027 10.1665 25.6953 10.1665 25.3748V21.7498C10.1665 21.4294 10.2938 21.122 10.5204 20.8954C10.747 20.6688 11.0544 20.5415 11.3748 20.5415C11.6953 20.5415 12.0027 20.6688 12.2293 20.8954C12.4559 21.122 12.5832 21.4294 12.5832 21.7498V25.3748C12.5832 25.6953 12.4559 26.0027 12.2293 26.2293C12.0027 26.4559 11.6953 26.5832 11.3748 26.5832Z" fill="#3371F2"/>
<path d="M18.6248 26.5832C18.3044 26.5832 17.997 26.4559 17.7704 26.2293C17.5438 26.0027 17.4165 25.6953 17.4165 25.3748V21.7498C17.4165 21.4294 17.5438 21.122 17.7704 20.8954C17.997 20.6688 18.3044 20.5415 18.6248 20.5415C18.9453 20.5415 19.2527 20.6688 19.4793 20.8954C19.7059 21.122 19.8332 21.4294 19.8332 21.7498V25.3748C19.8332 25.6953 19.7059 26.0027 19.4793 26.2293C19.2527 26.4559 18.9453 26.5832 18.6248 26.5832Z" fill="#3371F2"/>
<path d="M18.6248 22.9582H11.3748C11.0544 22.9582 10.747 22.8309 10.5204 22.6043C10.2938 22.3777 10.1665 22.0703 10.1665 21.7498V14.4998C10.1665 14.1794 10.2938 13.872 10.5204 13.6454C10.747 13.4188 11.0544 13.2915 11.3748 13.2915H18.6248C18.9453 13.2915 19.2527 13.4188 19.4793 13.6454C19.7059 13.872 19.8332 14.1794 19.8332 14.4998V21.7498C19.8332 22.0703 19.7059 22.3777 19.4793 22.6043C19.2527 22.8309 18.9453 22.9582 18.6248 22.9582ZM12.5832 20.5415H17.4165V15.7082H12.5832V20.5415Z" fill="#3371F2"/>
<path d="M6.54184 20.5419C6.3187 20.5412 6.10011 20.4787 5.91029 20.3614C5.72047 20.2441 5.56684 20.0765 5.46642 19.8773C5.3231 19.5919 5.29857 19.2614 5.3982 18.958C5.49782 18.6546 5.7135 18.403 5.99809 18.2581L10.8314 15.8414C10.9738 15.7558 11.1323 15.7004 11.2971 15.6787C11.4618 15.6571 11.6292 15.6697 11.7889 15.7157C11.9486 15.7617 12.097 15.8401 12.225 15.9461C12.353 16.0521 12.4578 16.1833 12.5327 16.3316C12.6077 16.4799 12.6513 16.642 12.6608 16.8079C12.6703 16.9738 12.6454 17.1399 12.5878 17.2957C12.5302 17.4516 12.4411 17.5939 12.326 17.7137C12.2109 17.8336 12.0723 17.9284 11.9189 17.9923L7.08559 20.4089C6.91845 20.4984 6.7314 20.5441 6.54184 20.5419Z" fill="#3371F2"/>
<path d="M23.4583 20.5419C23.2688 20.5441 23.0817 20.4984 22.9146 20.4089L18.0812 17.9923C17.9278 17.9284 17.7893 17.8336 17.6742 17.7137C17.5591 17.5939 17.47 17.4516 17.4123 17.2957C17.3547 17.1399 17.3299 16.9738 17.3394 16.8079C17.3488 16.642 17.3924 16.4799 17.4674 16.3316C17.5424 16.1833 17.6471 16.0521 17.7751 15.9461C17.9031 15.8401 18.0516 15.7617 18.2112 15.7157C18.3709 15.6697 18.5383 15.6571 18.7031 15.6787C18.8678 15.7004 19.0264 15.7558 19.1687 15.8414L24.0021 18.2581C24.2867 18.403 24.5023 18.6546 24.602 18.958C24.7016 19.2614 24.677 19.5919 24.5337 19.8773C24.4333 20.0765 24.2797 20.2441 24.0899 20.3614C23.9 20.4787 23.6814 20.5412 23.4583 20.5419Z" fill="#3371F2"/>
</svg>
