<svg width="23" height="23" viewBox="0 0 23 23" fill="none" xmlns="http://www.w3.org/2000/svg">
<path fill-rule="evenodd" clip-rule="evenodd" d="M16.7939 15.3286H15.8905L15.5703 15.0199C16.691 13.7163 17.3656 12.0239 17.3656 10.1828C17.3656 6.07762 14.038 2.75 9.93282 2.75C5.82762 2.75 2.5 6.07762 2.5 10.1828C2.5 14.288 5.82762 17.6156 9.93282 17.6156C11.7739 17.6156 13.4663 16.941 14.7699 15.8203L15.0786 16.1405V17.0439L20.7962 22.75L22.5 21.0462L16.7939 15.3286ZM9.9321 15.3286C7.08476 15.3286 4.78631 13.0302 4.78631 10.1828C4.78631 7.33548 7.08476 5.03702 9.9321 5.03702C12.7794 5.03702 15.0779 7.33548 15.0779 10.1828C15.0779 13.0302 12.7794 15.3286 9.9321 15.3286Z" fill="#6F677F"/>
</svg>
