<svg width="154" height="16" viewBox="0 0 154 16" fill="none" xmlns="http://www.w3.org/2000/svg">
<path d="M5.328 12.708C2.576 12.708 0.592 11.284 0.432 8.708H1.648C1.808 10.484 2.896 11.684 5.28 11.684C7.392 11.684 8.112 10.676 8.112 9.412C8.128 7.716 6.944 7.428 4.592 6.9C2.72 6.468 0.912 5.892 0.912 3.796C0.912 1.972 2.368 0.851999 4.72 0.851999C7.2 0.851999 8.768 2.116 8.944 4.356H7.728C7.536 2.772 6.656 1.876 4.72 1.876C3.04 1.876 2.128 2.564 2.128 3.748C2.128 5.284 3.488 5.604 5.168 5.972C7.52 6.484 9.328 7.06 9.328 9.38C9.328 11.236 8.048 12.708 5.328 12.708ZM17.9554 8.052C17.9554 8.276 17.9554 8.5 17.9394 8.628H11.4754C11.4914 10.276 12.3714 11.828 14.2914 11.828C15.9714 11.828 16.6274 10.676 16.7874 10.004H17.8434C17.4434 11.492 16.3234 12.724 14.2754 12.724C11.7794 12.724 10.3874 10.9 10.3874 8.42C10.3874 5.812 11.9234 4.132 14.2754 4.132C16.6274 4.132 17.9554 5.78 17.9554 8.052ZM11.4754 7.716H16.8514C16.8514 6.26 15.9074 5.028 14.2274 5.028C12.6434 5.028 11.5554 6.196 11.4754 7.716ZM21.6531 12.708C20.0211 12.708 18.9811 11.796 18.9811 10.436C18.9811 8.676 20.2291 8.116 22.3411 7.748C23.6851 7.508 24.5491 7.412 24.5491 6.436C24.5491 5.604 24.0051 5.044 22.6931 5.044C21.1091 5.044 20.5491 5.604 20.4691 6.804H19.3651C19.4451 5.364 20.3571 4.132 22.7251 4.132C24.2291 4.132 25.5571 4.772 25.5571 6.724V10.804C25.5571 11.46 25.6531 11.764 26.0211 11.764C26.0851 11.764 26.1491 11.764 26.2451 11.748V12.5C26.0691 12.532 25.8931 12.564 25.7011 12.564C25.0131 12.564 24.6131 12.292 24.5491 11.268H24.5171C23.9571 12.196 22.9811 12.708 21.6531 12.708ZM21.7811 11.796C23.4451 11.796 24.5491 10.916 24.5491 9.444V7.924C24.3091 8.26 23.4451 8.452 22.4691 8.612C20.8851 8.9 20.0691 9.3 20.0691 10.34C20.0691 11.284 20.5971 11.796 21.7811 11.796ZM31.0239 4.148C31.3119 4.148 31.5359 4.164 31.7279 4.196V5.22C31.5679 5.188 31.3919 5.172 31.2319 5.172C29.7599 5.172 28.6719 6.356 28.6719 7.94V12.5H27.6319V4.34H28.6719V6.004H28.7039C29.1199 4.932 29.8719 4.148 31.0239 4.148ZM35.8379 12.708C33.5019 12.708 31.9339 10.98 31.9339 8.42C31.9339 5.876 33.5019 4.148 35.8379 4.148C37.8219 4.148 39.1659 5.476 39.3419 7.204H38.2539C38.1899 6.292 37.5339 5.06 35.8379 5.06C33.8379 5.06 33.0219 6.756 33.0219 8.42C33.0219 10.1 33.8379 11.812 35.8379 11.812C37.5499 11.812 38.1899 10.58 38.2539 9.588H39.3419C39.2299 11.348 37.8219 12.708 35.8379 12.708ZM44.6133 4.148C46.0693 4.148 47.2853 4.964 47.2853 6.772V12.5H46.2453V6.996C46.2453 5.956 45.7653 5.06 44.3573 5.06C42.8053 5.06 41.7812 6.148 41.7812 7.348V12.5H40.7413V1.06H41.7812V5.508H41.8133C42.2773 4.836 43.1573 4.148 44.6133 4.148ZM54.8875 12.708C53.2555 12.708 52.2155 11.796 52.2155 10.436C52.2155 8.676 53.4635 8.116 55.5755 7.748C56.9195 7.508 57.7835 7.412 57.7835 6.436C57.7835 5.604 57.2395 5.044 55.9275 5.044C54.3435 5.044 53.7835 5.604 53.7035 6.804H52.5995C52.6795 5.364 53.5915 4.132 55.9595 4.132C57.4635 4.132 58.7915 4.772 58.7915 6.724V10.804C58.7915 11.46 58.8875 11.764 59.2555 11.764C59.3195 11.764 59.3835 11.764 59.4795 11.748V12.5C59.3035 12.532 59.1275 12.564 58.9355 12.564C58.2475 12.564 57.8475 12.292 57.7835 11.268H57.7515C57.1915 12.196 56.2155 12.708 54.8875 12.708ZM55.0155 11.796C56.6795 11.796 57.7835 10.916 57.7835 9.444V7.924C57.5435 8.26 56.6795 8.452 55.7035 8.612C54.1195 8.9 53.3035 9.3 53.3035 10.34C53.3035 11.284 53.8315 11.796 55.0155 11.796ZM64.7383 4.148C66.1943 4.148 67.4103 4.964 67.4103 6.772V12.5H66.3703V6.996C66.3703 5.956 65.8903 5.06 64.4823 5.06C62.9303 5.06 61.9062 6.148 61.9062 7.348V12.5H60.8663V4.34H61.9062V5.508H61.9383C62.4023 4.836 63.2823 4.148 64.7383 4.148ZM69.8675 15.364C69.6115 15.364 69.4195 15.348 69.0835 15.3V14.404C69.3235 14.436 69.4515 14.452 69.7075 14.452C70.4755 14.452 71.0995 13.956 71.5475 12.452L68.2515 4.34H69.4035L72.0595 11.14H72.0915L74.6195 4.34H75.7395L72.4755 12.74C71.6755 14.772 70.9555 15.364 69.8675 15.364ZM79.9866 4.34V5.252H78.3386V10.404C78.3386 11.412 78.5626 11.652 79.3626 11.652C79.6186 11.652 79.7466 11.636 79.9866 11.62V12.5C79.6666 12.548 79.4746 12.564 79.2186 12.564C78.0346 12.564 77.2986 12.164 77.2986 10.388V5.252H76.0986V4.34H77.2986V1.62H78.3386V4.34H79.9866ZM85.207 4.148C86.663 4.148 87.879 4.964 87.879 6.772V12.5H86.839V6.996C86.839 5.956 86.359 5.06 84.951 5.06C83.399 5.06 82.375 6.148 82.375 7.348V12.5H81.335V1.06H82.375V5.508H82.407C82.871 4.836 83.751 4.148 85.207 4.148ZM90.9253 2.708H89.5813V1.364H90.9253V2.708ZM90.7812 12.5H89.7413V4.34H90.7812V12.5ZM96.5664 4.148C98.0224 4.148 99.2384 4.964 99.2384 6.772V12.5H98.1984V6.996C98.1984 5.956 97.7184 5.06 96.3104 5.06C94.7584 5.06 93.7344 6.148 93.7344 7.348V12.5H92.6944V4.34H93.7344V5.508H93.7664C94.2304 4.836 95.1104 4.148 96.5664 4.148ZM107.069 5.62V4.34H108.109V11.988C108.109 14.308 106.669 15.428 104.429 15.428C102.221 15.428 101.053 14.356 100.925 12.932H102.013C102.173 13.812 102.861 14.516 104.445 14.516C106.093 14.516 107.069 13.796 107.069 12.132V10.612H107.037C106.557 11.46 105.661 12.116 104.285 12.116C102.333 12.116 100.701 10.836 100.701 8.116C100.701 5.428 102.333 4.148 104.285 4.148C105.661 4.148 106.557 4.804 107.037 5.62H107.069ZM104.429 11.204C105.933 11.204 107.069 10.212 107.069 8.116C107.069 6.052 105.933 5.06 104.429 5.06C102.749 5.06 101.789 6.276 101.789 8.116C101.789 9.988 102.749 11.204 104.429 11.204ZM117.379 4.148C118.835 4.148 120.051 4.964 120.051 6.772V12.5H119.011V6.996C119.011 5.956 118.531 5.06 117.123 5.06C115.571 5.06 114.547 6.148 114.547 7.348V12.5H113.507V1.06H114.547V5.508H114.579C115.043 4.836 115.923 4.148 117.379 4.148ZM129.049 8.052C129.049 8.276 129.049 8.5 129.033 8.628H122.569C122.585 10.276 123.465 11.828 125.385 11.828C127.065 11.828 127.721 10.676 127.881 10.004H128.937C128.537 11.492 127.417 12.724 125.369 12.724C122.873 12.724 121.481 10.9 121.481 8.42C121.481 5.812 123.017 4.132 125.369 4.132C127.721 4.132 129.049 5.78 129.049 8.052ZM122.569 7.716H127.945C127.945 6.26 127.001 5.028 125.321 5.028C123.737 5.028 122.649 6.196 122.569 7.716ZM133.899 4.148C134.187 4.148 134.411 4.164 134.603 4.196V5.22C134.443 5.188 134.267 5.172 134.107 5.172C132.635 5.172 131.547 6.356 131.547 7.94V12.5H130.507V4.34H131.547V6.004H131.579C131.995 4.932 132.747 4.148 133.899 4.148ZM142.393 8.052C142.393 8.276 142.393 8.5 142.377 8.628H135.913C135.929 10.276 136.809 11.828 138.729 11.828C140.409 11.828 141.065 10.676 141.225 10.004H142.281C141.881 11.492 140.761 12.724 138.713 12.724C136.217 12.724 134.825 10.9 134.825 8.42C134.825 5.812 136.361 4.132 138.713 4.132C141.065 4.132 142.393 5.78 142.393 8.052ZM135.913 7.716H141.289C141.289 6.26 140.345 5.028 138.665 5.028C137.081 5.028 135.993 6.196 135.913 7.716ZM144.753 12.5H143.409V11.156H144.753V12.5ZM147.675 12.5H146.331V11.156H147.675V12.5ZM150.597 12.5H149.253V11.156H150.597V12.5ZM153.519 12.5H152.175V11.156H153.519V12.5Z" fill="#6F677F"/>
</svg>
