<svg width="24" height="25" viewBox="0 0 24 25" fill="none" xmlns="http://www.w3.org/2000/svg">
<path d="M21.6759 15.1633L20.1408 13.8508C20.2134 13.4055 20.2509 12.9508 20.2509 12.4961C20.2509 12.0414 20.2134 11.5868 20.1408 11.1414L21.6759 9.82895C21.7917 9.72982 21.8746 9.5978 21.9135 9.45043C21.9524 9.30306 21.9456 9.14733 21.8939 9.00394L21.8728 8.94301C21.4502 7.76182 20.8173 6.66684 20.0048 5.71098L19.9626 5.66176C19.8641 5.54586 19.7327 5.46255 19.5858 5.42281C19.439 5.38306 19.2835 5.38874 19.14 5.4391L17.2345 6.11645C16.5314 5.53988 15.7462 5.0852 14.8978 4.76645L14.5298 2.77426C14.5021 2.62436 14.4293 2.48645 14.3213 2.37886C14.2133 2.27127 14.0751 2.19909 13.9251 2.17191L13.8618 2.1602C12.6408 1.93988 11.3564 1.93988 10.1353 2.1602L10.072 2.17191C9.92199 2.19909 9.78381 2.27127 9.6758 2.37886C9.56779 2.48645 9.49508 2.62436 9.46731 2.77426L9.097 4.77582C8.25533 5.09464 7.47153 5.54908 6.77669 6.12113L4.85716 5.4391C4.71364 5.38834 4.55807 5.38245 4.41113 5.42223C4.26419 5.462 4.13283 5.54554 4.0345 5.66176L3.99231 5.71098C3.18078 6.66752 2.54804 7.76231 2.12435 8.94301L2.10325 9.00394C1.99778 9.29691 2.0845 9.62504 2.32122 9.82895L3.87513 11.1555C3.80247 11.5961 3.76731 12.0461 3.76731 12.4938C3.76731 12.9438 3.80247 13.3938 3.87513 13.8321L2.32122 15.1586C2.20543 15.2578 2.12256 15.3898 2.08362 15.5372C2.04469 15.6845 2.05153 15.8403 2.10325 15.9836L2.12435 16.0446C2.54856 17.2258 3.17669 18.3157 3.99231 19.2766L4.0345 19.3258C4.13307 19.4417 4.26443 19.525 4.41129 19.5648C4.55814 19.6045 4.7136 19.5988 4.85716 19.5485L6.77669 18.8664C7.47513 19.4407 8.2556 19.8954 9.097 20.2118L9.46731 22.2133C9.49508 22.3632 9.56779 22.5011 9.6758 22.6087C9.78381 22.7163 9.92199 22.7885 10.072 22.8157L10.1353 22.8274C11.3676 23.0489 12.6295 23.0489 13.8618 22.8274L13.9251 22.8157C14.0751 22.7885 14.2133 22.7163 14.3213 22.6087C14.4293 22.5011 14.5021 22.3632 14.5298 22.2133L14.8978 20.2211C15.7459 19.9032 16.5355 19.447 17.2345 18.8711L19.14 19.5485C19.2835 19.5992 19.4391 19.6051 19.586 19.5654C19.7329 19.5256 19.8643 19.442 19.9626 19.3258L20.0048 19.2766C20.8204 18.3133 21.4486 17.2258 21.8728 16.0446L21.8939 15.9836C21.9993 15.6954 21.9126 15.3672 21.6759 15.1633ZM18.4767 11.418C18.5353 11.7719 18.5658 12.1352 18.5658 12.4985C18.5658 12.8618 18.5353 13.225 18.4767 13.5789L18.322 14.5188L20.0728 16.0164C19.8074 16.6279 19.4723 17.2067 19.0743 17.7414L16.8993 16.9704L16.1634 17.575C15.6033 18.0344 14.9798 18.3954 14.3048 18.6485L13.4118 18.9836L12.9923 21.2571C12.3304 21.3321 11.6621 21.3321 11.0001 21.2571L10.5806 18.9789L9.69466 18.6391C9.02669 18.386 8.4056 18.025 7.85013 17.568L7.11419 16.961L4.92513 17.7391C4.52669 17.2024 4.19388 16.6235 3.92669 16.0141L5.69622 14.5024L5.54388 13.5649C5.48763 13.2157 5.45716 12.8547 5.45716 12.4985C5.45716 12.1399 5.48528 11.7813 5.54388 11.4321L5.69622 10.4946L3.92669 8.98285C4.19153 8.37113 4.52669 7.79457 4.92513 7.25785L7.11419 8.03598L7.85013 7.42895C8.4056 6.97191 9.02669 6.61098 9.69466 6.35785L10.5829 6.0227L11.0025 3.74457C11.6611 3.66957 12.3337 3.66957 12.9947 3.74457L13.4142 6.01801L14.3072 6.35316C14.9798 6.60629 15.6056 6.96723 16.1658 7.4266L16.9017 8.03129L19.0767 7.26019C19.4751 7.79691 19.8079 8.37582 20.0751 8.9852L18.3243 10.4829L18.4767 11.418ZM12.0009 8.1391C9.72278 8.1391 7.87591 9.98598 7.87591 12.2641C7.87591 14.5422 9.72278 16.3891 12.0009 16.3891C14.279 16.3891 16.1259 14.5422 16.1259 12.2641C16.1259 9.98598 14.279 8.1391 12.0009 8.1391ZM13.8572 14.1204C13.6137 14.3645 13.3244 14.5581 13.0058 14.6901C12.6872 14.822 12.3457 14.8896 12.0009 14.8891C11.3001 14.8891 10.6415 14.6149 10.1447 14.1204C9.90049 13.8769 9.70688 13.5875 9.57495 13.269C9.44301 12.9504 9.37537 12.6089 9.37591 12.2641C9.37591 11.5633 9.65013 10.9047 10.1447 10.4079C10.6415 9.91098 11.3001 9.6391 12.0009 9.6391C12.7017 9.6391 13.3603 9.91098 13.8572 10.4079C14.1013 10.6513 14.2949 10.9407 14.4269 11.2592C14.5588 11.5778 14.6264 11.9193 14.6259 12.2641C14.6259 12.9649 14.3517 13.6235 13.8572 14.1204Z" fill="white"/>
</svg>
