<svg width="71" height="12" viewBox="0 0 71 12" fill="none" xmlns="http://www.w3.org/2000/svg">
<path d="M4.76 11.196C2.226 11.196 0.448 9.88 0.336 7.626H1.932C2.044 8.97 2.842 9.88 4.718 9.88C6.328 9.88 6.818 9.18 6.818 8.27C6.818 6.996 5.838 6.814 4.018 6.352C2.45 5.932 0.728 5.428 0.728 3.524C0.728 1.788 2.072 0.794 4.228 0.794C6.51 0.794 7.994 1.956 8.148 3.972H6.552C6.384 2.768 5.698 2.11 4.242 2.11C2.982 2.11 2.338 2.572 2.338 3.44C2.338 4.56 3.388 4.798 4.676 5.12C6.608 5.61 8.428 6.072 8.428 8.186C8.428 9.908 7.266 11.196 4.76 11.196ZM11.7997 11H10.2597V0.99H11.7997V5.176H16.7137V0.99H18.2677V11H16.7137V6.506H11.7997V11ZM24.4962 11.196C21.7522 11.196 20.5902 9.754 20.5902 7.598V0.99H22.1302V7.598C22.1302 9.152 22.9142 9.866 24.4962 9.866C26.0922 9.866 26.8622 9.152 26.8622 7.598V0.99H28.4162V7.598C28.4162 9.754 27.2542 11.196 24.4962 11.196ZM35.2259 11H30.7599V0.99H34.9739C37.0319 0.99 38.2359 1.914 38.2359 3.51C38.2359 4.742 37.5079 5.316 36.6819 5.596V5.624C37.7319 5.806 38.6279 6.576 38.6279 8.074C38.6279 9.992 37.2979 11 35.2259 11ZM32.2999 5.148H34.9319C36.1919 5.148 36.6259 4.63 36.6259 3.734C36.6259 2.852 36.0939 2.32 35.0439 2.32H32.2999V5.148ZM32.2999 9.67H35.1139C36.5979 9.67 37.0179 8.956 37.0179 8.018C37.0179 6.968 36.3739 6.366 35.3239 6.366H32.2999V9.67ZM42.0578 11H40.5178V0.99H42.0578V5.176H46.9718V0.99H48.5258V11H46.9718V6.506H42.0578V11ZM51.6042 11H49.9802L53.7042 0.99H55.3702L59.1222 11H57.4422L56.6162 8.592H52.4302L51.6042 11ZM54.5162 2.418L52.8922 7.29H56.1822L54.5442 2.418H54.5162ZM62.0924 11H60.5804V0.99H62.6104L65.4944 8.858H65.5224L68.4204 0.99H70.4504V11H68.9384V3.23H68.9104L66.1524 11H64.8784L62.1204 3.23H62.0924V11Z" fill="white"/>
</svg>
