<svg width="97" height="105" viewBox="0 0 97 105" fill="none" xmlns="http://www.w3.org/2000/svg">
<path fill-rule="evenodd" clip-rule="evenodd" d="M96.6716 24.3968C96.6716 37.8708 85.3089 48.7937 71.2922 48.7937C46.697 48.7937 26.7587 67.9601 26.7587 91.6032C26.7587 105.077 15.396 116 1.37934 116C-12.6373 116 -24 105.077 -24 91.6032C-24 82.8616 -19.2173 75.1938 -12.0303 70.886C-1.53849 64.5906 -0.187576 52.2112 -12.0286 45.115C-19.2166 40.8073 -24 33.139 -24 24.3968C-24 10.9228 -12.6373 0 1.37932 0C15.3959 0 26.7586 10.9228 26.7586 24.3968C26.7586 33.139 21.9753 40.8073 14.7873 45.115C6.1978 50.2626 4.55005 58.1904 8.29768 64.5591C9.02166 65.7895 10.5426 66.3233 11.9738 65.9875C31.4543 61.4178 45.9129 44.5304 45.9129 24.3968C45.9129 10.9228 57.2756 0 71.2922 0C85.3089 0 96.6716 10.9228 96.6716 24.3968ZM71.6207 115.843C85.6373 115.843 97 104.92 97 91.4465C97 77.9725 85.6373 67.0497 71.6207 67.0497C57.6041 67.0497 46.2414 77.9725 46.2414 91.4465C46.2414 104.92 57.6041 115.843 71.6207 115.843Z" fill="url(#paint0_radial_447_10411)"/>
<defs>
<radialGradient id="paint0_radial_447_10411" cx="0" cy="0" r="1" gradientUnits="userSpaceOnUse" gradientTransform="translate(-17.934 5.57693) rotate(48.8779) scale(156.314 162.795)">
<stop stop-color="#709DFF" stop-opacity="0.8"/>
<stop offset="1" stop-color="#E9F0FF" stop-opacity="0"/>
</radialGradient>
</defs>
</svg>
