<svg width="51" height="50" viewBox="0 0 51 50" fill="none" xmlns="http://www.w3.org/2000/svg">
<circle cx="25.5" cy="25" r="25" fill="url(#paint0_linear_1_4477)"/>
<path d="M25.6609 23.6551C25.6419 23.6309 25.6176 23.6112 25.5899 23.5977C25.5621 23.5842 25.5317 23.5772 25.5009 23.5772C25.4701 23.5772 25.4396 23.5842 25.4119 23.5977C25.3842 23.6112 25.3599 23.6309 25.3409 23.6551L22.4972 27.253C22.4738 27.2829 22.4592 27.3189 22.4552 27.3567C22.4512 27.3945 22.458 27.4327 22.4747 27.4668C22.4913 27.501 22.5173 27.5298 22.5496 27.5499C22.5818 27.57 22.6191 27.5806 22.6572 27.5805H24.5335V33.7353C24.5335 33.847 24.6249 33.9384 24.7366 33.9384H26.2601C26.3718 33.9384 26.4632 33.847 26.4632 33.7353V27.5831H28.3446C28.5148 27.5831 28.6087 27.3876 28.5046 27.2555L25.6609 23.6551Z" fill="white"/>
<path d="M33.102 21.3107C31.9391 18.2435 28.976 16.0625 25.5051 16.0625C22.0342 16.0625 19.0711 18.241 17.9082 21.3082C15.7322 21.8795 14.125 23.8625 14.125 26.2187C14.125 29.0244 16.3975 31.2968 19.2006 31.2968H20.2188C20.3305 31.2968 20.4219 31.2054 20.4219 31.0937V29.5703C20.4219 29.4586 20.3305 29.3672 20.2188 29.3672H19.2006C18.3449 29.3672 17.54 29.0269 16.9408 28.4099C16.3441 27.7955 16.0268 26.9677 16.0547 26.1095C16.0775 25.4392 16.3061 24.8095 16.7199 24.2789C17.1439 23.7381 17.7381 23.3445 18.3982 23.1693L19.3605 22.9179L19.7135 21.9886C19.9318 21.4097 20.2365 20.8689 20.6199 20.3789C20.9984 19.8932 21.4468 19.4662 21.9504 19.1119C22.9939 18.3781 24.2229 17.9896 25.5051 17.9896C26.7873 17.9896 28.0162 18.3781 29.0598 19.1119C29.565 19.4674 30.0119 19.8939 30.3902 20.3789C30.7736 20.8689 31.0783 21.4123 31.2967 21.9886L31.6471 22.9154L32.6068 23.1693C33.983 23.54 34.9453 24.7918 34.9453 26.2187C34.9453 27.0591 34.6178 27.8513 34.0236 28.4455C33.7323 28.7386 33.3856 28.9709 33.0039 29.1291C32.6221 29.2873 32.2127 29.3682 31.7994 29.3672H30.7812C30.6695 29.3672 30.5781 29.4586 30.5781 29.5703V31.0937C30.5781 31.2054 30.6695 31.2968 30.7812 31.2968H31.7994C34.6025 31.2968 36.875 29.0244 36.875 26.2187C36.875 23.865 35.2729 21.8845 33.102 21.3107Z" fill="white"/>
<defs>
<linearGradient id="paint0_linear_1_4477" x1="41.5" y1="5" x2="10.5" y2="43" gradientUnits="userSpaceOnUse">
<stop stop-color="#3371F2"/>
<stop offset="1" stop-color="#3371F2" stop-opacity="0.6"/>
</linearGradient>
</defs>
</svg>
