<svg width="51" height="50" viewBox="0 0 51 50" fill="none" xmlns="http://www.w3.org/2000/svg">
<path d="M25.5 0C11.6942 0 0.5 11.1942 0.5 25C0.5 38.8058 11.6942 50 25.5 50C39.3058 50 50.5 38.8058 50.5 25C50.5 11.1942 39.3058 0 25.5 0ZM23.7143 12.9464C23.7143 12.7009 23.9152 12.5 24.1607 12.5H26.8393C27.0848 12.5 27.2857 12.7009 27.2857 12.9464V28.125C27.2857 28.3705 27.0848 28.5714 26.8393 28.5714H24.1607C23.9152 28.5714 23.7143 28.3705 23.7143 28.125V12.9464ZM25.5 37.5C24.7991 37.4857 24.1317 37.1972 23.641 36.6964C23.1504 36.1957 22.8755 35.5225 22.8755 34.8214C22.8755 34.1203 23.1504 33.4472 23.641 32.9464C24.1317 32.4457 24.7991 32.1572 25.5 32.1429C26.2009 32.1572 26.8683 32.4457 27.359 32.9464C27.8496 33.4472 28.1245 34.1203 28.1245 34.8214C28.1245 35.5225 27.8496 36.1957 27.359 36.6964C26.8683 37.1972 26.2009 37.4857 25.5 37.5Z" fill="#FAAD14"/>
</svg>
