<svg width="51" height="50" viewBox="0 0 51 50" fill="none" xmlns="http://www.w3.org/2000/svg">
<path d="M25.5 0C11.6942 0 0.5 11.1942 0.5 25C0.5 38.8058 11.6942 50 25.5 50C39.3058 50 50.5 38.8058 50.5 25C50.5 11.1942 39.3058 0 25.5 0ZM36.298 16.8359L24.5458 33.1306C24.3815 33.3598 24.165 33.5466 23.9141 33.6755C23.6632 33.8044 23.3853 33.8716 23.1032 33.8716C22.8212 33.8716 22.5432 33.8044 22.2924 33.6755C22.0415 33.5466 21.825 33.3598 21.6607 33.1306L14.702 23.4877C14.49 23.192 14.702 22.779 15.0647 22.779H17.6819C18.2511 22.779 18.7924 23.0525 19.1272 23.5212L23.1004 29.0346L31.8728 16.8694C32.2076 16.4062 32.7433 16.1272 33.3181 16.1272H35.9353C36.298 16.1272 36.51 16.5402 36.298 16.8359Z" fill="#7CBB5B"/>
</svg>
