<svg width="215" height="240" viewBox="0 0 215 240" fill="none" xmlns="http://www.w3.org/2000/svg">
<path fill-rule="evenodd" clip-rule="evenodd" d="M248.324 50.4762C248.324 78.3534 224.941 100.952 196.097 100.952C145.484 100.952 104.454 140.607 104.454 189.524C104.454 217.401 81.071 240 52.2269 240C23.3828 240 0 217.401 0 189.524C0 171.438 9.84201 155.573 24.6319 146.661C46.2224 133.636 49.0024 108.023 24.6353 93.3414C9.84342 84.4289 0 68.5635 0 50.4762C0 22.599 23.3828 0 52.2269 0C81.071 0 104.454 22.599 104.454 50.4762C104.454 68.5635 94.6103 84.4289 79.8184 93.3414C62.1426 103.992 58.7517 120.394 66.4638 133.571C67.9537 136.116 71.0834 137.221 74.0288 136.526C114.117 127.071 143.87 92.132 143.87 50.4762C143.87 22.599 167.253 0 196.097 0C224.941 0 248.324 22.599 248.324 50.4762ZM196.773 239.676C225.617 239.676 249 217.077 249 189.2C249 161.322 225.617 138.723 196.773 138.723C167.929 138.723 144.546 161.322 144.546 189.2C144.546 217.077 167.929 239.676 196.773 239.676Z" fill="#E9F0FF"/>
</svg>
