<svg width="12" height="18" viewBox="0 0 12 18" fill="none" xmlns="http://www.w3.org/2000/svg">
<path d="M6 3C2.68661 3 0 5.68661 0 9C0 12.3134 2.68661 15 6 15C9.31339 15 12 12.3134 12 9C12 5.68661 9.31339 3 6 3ZM8.21518 11.2795L7.33125 11.2754L6 9.68839L4.67009 11.2741L3.78482 11.2781C3.72589 11.2781 3.67768 11.2312 3.67768 11.171C3.67768 11.1455 3.68705 11.1214 3.70312 11.1013L5.44554 9.02545L3.70312 6.95089C3.68694 6.93126 3.67796 6.90669 3.67768 6.88125C3.67768 6.82232 3.72589 6.77411 3.78482 6.77411L4.67009 6.77813L6 8.36518L7.32991 6.77946L8.21384 6.77545C8.27277 6.77545 8.32098 6.82232 8.32098 6.88259C8.32098 6.90804 8.31161 6.93214 8.29554 6.95223L6.5558 9.02679L8.29688 11.1027C8.31295 11.1228 8.32232 11.1469 8.32232 11.1723C8.32232 11.2312 8.27411 11.2795 8.21518 11.2795Z" fill="#FC0F1A"/>
</svg>
